<svg xmlns="http://www.w3.org/2000/svg" x="0px" y="0px" width="100%" height="100%" viewBox="0 0 200 94.551" style="vertical-align: middle; max-width: 100%;"><g>
	<path fill="rgb(249,202,227)" d="M8.911,26.129l2.201-1.462c-0.184,0.132-0.438,0.111-0.592-0.06l-1.657,1.437   C8.885,26.07,8.896,26.1,8.911,26.129z"></path>
	<path fill="rgb(249,202,227)" d="M12.853,22.585l-1.657,1.437c0.154,0.185,0.135,0.456-0.042,0.617l2.577-1.712l-0.258-0.298   C13.287,22.785,13.014,22.764,12.853,22.585z"></path>
	<path fill="rgb(249,202,227)" d="M15.184,20.563L13.527,22c0.156,0.187,0.136,0.465-0.049,0.625l0.258,0.297l2.586-1.718l-0.519-0.598   C15.619,20.762,15.346,20.742,15.184,20.563z"></path>
	<path fill="rgb(249,202,227)" d="M17.517,18.541l-1.657,1.437c0.157,0.187,0.137,0.466-0.049,0.625c0,0,0,0,0,0l0.519,0.598l0.946-0.629   c-0.062-0.169-0.02-0.366,0.125-0.491c0.174-0.151,0.427-0.138,0.592,0.014l0.922-0.612l-0.778-0.898   C17.951,18.74,17.678,18.72,17.517,18.541z"></path>
	<path fill="rgb(249,202,227)" d="M19.984,16.623c-0.05-0.025-0.095-0.061-0.135-0.104l-1.657,1.437c0.156,0.187,0.137,0.465-0.049,0.626   l0.778,0.897l0.989-0.657c-0.083-0.022-0.162-0.061-0.222-0.131c-0.162-0.187-0.142-0.469,0.045-0.632   c0.187-0.162,0.47-0.142,0.632,0.045c0.087,0.1,0.118,0.226,0.103,0.347l1.04-0.69l-1.039-1.198   C20.329,16.68,20.139,16.699,19.984,16.623z"></path>
	<path fill="rgb(249,202,227)" d="M20.524,15.934c0.156,0.187,0.137,0.466-0.048,0.625l1.038,1.198v0l1.87-1.242l-1.899-1.414L20.524,15.934z    M22.065,16.037c0.187-0.162,0.47-0.143,0.632,0.045c0.162,0.188,0.142,0.47-0.045,0.632c-0.188,0.163-0.471,0.143-0.633-0.045   C21.857,16.482,21.878,16.199,22.065,16.037z"></path>
	<path fill="rgb(249,202,227)" d="M1.846,29.809c0.063,0.026,0.123,0.062,0.17,0.117c0.163,0.188,0.143,0.47-0.045,0.632   c-0.098,0.085-0.223,0.117-0.343,0.104l-0.093,0.366l1.825-1.212l-1.172-1.353L1.846,29.809z"></path>
	<path fill="rgb(249,202,227)" d="M3.833,26.319l-1.409,1.222l-0.232,0.914l1.176,1.357h0l2.401-1.596c0.023-0.072,0.06-0.141,0.121-0.195   l-1.437-1.657C4.268,26.519,3.994,26.498,3.833,26.319z M4.304,28.536c-0.187,0.163-0.471,0.142-0.632-0.045   c-0.162-0.187-0.142-0.47,0.045-0.632c0.187-0.162,0.469-0.142,0.632,0.045C4.511,28.091,4.491,28.374,4.304,28.536z"></path>
	<path fill="rgb(249,202,227)" d="M6.785,24.341c-0.185,0.155-0.458,0.136-0.62-0.044l-1.657,1.437c0.156,0.187,0.137,0.465-0.049,0.626h0   l1.435,1.655c0,0,0,0,0,0c0.097-0.084,0.219-0.117,0.337-0.105l1.945-1.292c-0.037-0.045-0.066-0.094-0.083-0.147   c-0.053-0.164-0.007-0.35,0.128-0.472L6.785,24.341z M6.637,26.514c-0.188,0.163-0.47,0.142-0.633-0.045   C5.842,26.282,5.862,26,6.049,25.837c0.188-0.162,0.47-0.142,0.632,0.045C6.844,26.069,6.824,26.352,6.637,26.514z"></path>
	<path fill="rgb(249,202,227)" d="M10.555,23.976l-1.438-1.656c-0.14,0.117-0.33,0.135-0.485,0.06c-0.05-0.024-0.096-0.06-0.135-0.104   l-1.656,1.437c0.156,0.187,0.137,0.465-0.049,0.625l1.435,1.655c0,0,0,0,0,0c0.188-0.162,0.47-0.142,0.632,0.046l1.655-1.435   c0,0,0,0,0,0C10.353,24.417,10.373,24.14,10.555,23.976z M8.969,24.492c-0.188,0.162-0.47,0.142-0.632-0.045   c-0.163-0.187-0.142-0.47,0.045-0.632c0.187-0.162,0.47-0.143,0.632,0.045C9.176,24.047,9.156,24.33,8.969,24.492z"></path>
	<path fill="rgb(249,202,227)" d="M12.887,21.954l-1.437-1.657c-0.186,0.155-0.458,0.136-0.62-0.044l-1.657,1.437   c0.156,0.188,0.137,0.465-0.048,0.626c0,0,0,0,0,0l1.435,1.654c0.187-0.163,0.47-0.142,0.632,0.045c0,0,0,0,0,0l1.655-1.435   c0,0,0,0,0,0c-0.122-0.14-0.141-0.334-0.063-0.491C12.808,22.039,12.843,21.993,12.887,21.954z M11.301,22.47   c-0.188,0.163-0.471,0.143-0.632-0.045c-0.162-0.188-0.142-0.469,0.045-0.632c0.187-0.162,0.47-0.142,0.632,0.045   S11.488,22.308,11.301,22.47z"></path>
	<path fill="rgb(249,202,227)" d="M13.783,18.275c-0.186,0.155-0.459,0.135-0.621-0.044l-1.657,1.437c0.157,0.187,0.137,0.466-0.048,0.625h0   l1.435,1.655v0c0.188-0.162,0.47-0.142,0.632,0.045l1.654-1.434l0,0v0c-0.16-0.185-0.141-0.462,0.041-0.625L13.783,18.275z    M13.634,20.448c-0.187,0.162-0.47,0.142-0.633-0.045c-0.162-0.187-0.142-0.47,0.045-0.632s0.47-0.143,0.632,0.045   C13.841,20.003,13.821,20.286,13.634,20.448z"></path>
	<path fill="rgb(249,202,227)" d="M16.114,16.253c-0.14,0.117-0.33,0.136-0.485,0.06c-0.05-0.025-0.095-0.061-0.135-0.104l-1.657,1.437   c0.156,0.187,0.137,0.465-0.049,0.626l1.434,1.655c0,0,0,0,0,0c0.188-0.163,0.47-0.142,0.632,0.045l1.655-1.435   c-0.161-0.185-0.141-0.463,0.041-0.626L16.114,16.253z M15.966,18.426c-0.188,0.163-0.47,0.143-0.632-0.045   c-0.163-0.188-0.142-0.47,0.045-0.632c0.186-0.162,0.47-0.142,0.632,0.045C16.172,17.981,16.153,18.264,15.966,18.426z"></path>
	<path fill="rgb(249,202,227)" d="M18.447,14.231c-0.185,0.155-0.458,0.135-0.62-0.044l-1.657,1.437c0.156,0.188,0.137,0.465-0.048,0.626   l1.435,1.655c0.187-0.163,0.47-0.143,0.632,0.045l1.655-1.435c-0.041-0.047-0.07-0.1-0.087-0.155   c-0.053-0.164-0.007-0.349,0.128-0.471L18.447,14.231z M18.298,16.404c-0.188,0.162-0.47,0.142-0.632-0.045   c-0.162-0.187-0.142-0.469,0.045-0.632c0.187-0.163,0.47-0.142,0.632,0.045S18.485,16.241,18.298,16.404z"></path>
	<path fill="rgb(249,202,227)" d="M18.454,14.228C18.454,14.228,18.454,14.228,18.454,14.228l1.435,1.654c0,0,0,0,0,0   c0.187-0.163,0.47-0.143,0.631,0.045l0.958-0.831l-0.911-0.678c-0.184,0.112-0.423,0.087-0.569-0.081   c-0.101-0.117-0.123-0.269-0.086-0.407l-0.962-0.716l-0.447,0.388C18.659,13.788,18.639,14.066,18.454,14.228z"></path>
	<path fill="rgb(249,202,227)" d="M3.868,25.688l-0.752-0.867l-0.689,2.708l1.4-1.214C3.667,26.129,3.686,25.852,3.868,25.688z"></path>
	<path fill="rgb(249,202,227)" d="M3.873,25.682c0.187-0.162,0.47-0.142,0.632,0.045l1.655-1.435C5.999,24.107,6.019,23.83,6.2,23.666   l-1.437-1.657c-0.186,0.154-0.458,0.135-0.62-0.044l-0.385,0.334l-0.64,2.513L3.873,25.682C3.873,25.682,3.873,25.682,3.873,25.682   z M4.028,23.504c0.186-0.163,0.47-0.142,0.632,0.045c0.162,0.188,0.142,0.47-0.045,0.632c-0.188,0.162-0.471,0.142-0.632-0.045   C3.82,23.949,3.84,23.667,4.028,23.504z"></path>
	<path fill="rgb(249,202,227)" d="M7.095,19.986c-0.185,0.156-0.458,0.135-0.62-0.044l-1.657,1.437c0.157,0.188,0.137,0.465-0.048,0.626   l1.435,1.655c0,0,0,0,0,0c0.187-0.163,0.47-0.142,0.632,0.045l1.655-1.435c-0.041-0.047-0.07-0.1-0.087-0.155   c-0.053-0.164-0.008-0.349,0.128-0.471L7.095,19.986z M6.947,22.159c-0.188,0.163-0.47,0.143-0.633-0.044   c-0.162-0.187-0.142-0.47,0.045-0.632c0.187-0.162,0.47-0.142,0.632,0.046C7.153,21.715,7.133,21.998,6.947,22.159z"></path>
	<path fill="rgb(249,202,227)" d="M8.537,21.637c0.187-0.163,0.47-0.142,0.632,0.045v0l1.655-1.435c-0.041-0.046-0.07-0.099-0.087-0.154   c-0.053-0.164-0.007-0.349,0.128-0.471l-1.437-1.657C9.242,18.12,8.968,18.1,8.808,17.92l-1.657,1.437   c0.156,0.186,0.137,0.465-0.048,0.625L8.537,21.637C8.537,21.638,8.537,21.637,8.537,21.637z M8.692,19.46   c0.187-0.163,0.47-0.142,0.632,0.045c0.162,0.188,0.143,0.47-0.044,0.632c-0.188,0.162-0.47,0.142-0.632-0.045   C8.484,19.905,8.505,19.623,8.692,19.46z"></path>
	<path fill="rgb(249,202,227)" d="M11.76,15.942c-0.186,0.156-0.458,0.135-0.62-0.044l-1.657,1.437c0.156,0.188,0.137,0.465-0.048,0.626   l1.435,1.655c0,0,0,0,0,0c0.187-0.163,0.469-0.143,0.632,0.045l1.655-1.434c-0.041-0.047-0.07-0.1-0.088-0.155   c-0.053-0.164-0.007-0.35,0.128-0.472L11.76,15.942z M11.612,18.115c-0.188,0.163-0.47,0.143-0.632-0.044   c-0.163-0.187-0.143-0.47,0.045-0.632c0.187-0.162,0.47-0.142,0.632,0.046C11.818,17.671,11.799,17.954,11.612,18.115z"></path>
	<path fill="rgb(249,202,227)" d="M14.092,13.92c-0.186,0.155-0.458,0.135-0.62-0.044l-1.657,1.437c0.157,0.187,0.137,0.466-0.048,0.626h0   l1.435,1.655c0.187-0.163,0.47-0.142,0.633,0.045c0,0,0,0,0,0l1.654-1.435c-0.04-0.047-0.069-0.099-0.087-0.154   c-0.054-0.164-0.008-0.35,0.127-0.471L14.092,13.92z M13.944,16.094c-0.188,0.162-0.47,0.142-0.632-0.045   c-0.162-0.188-0.143-0.47,0.045-0.632c0.187-0.163,0.47-0.142,0.632,0.045C14.15,15.649,14.13,15.931,13.944,16.094z"></path>
	<polygon fill="rgb(249,202,227)" points="10.853,24.309 10.854,24.309 10.853,24.309 10.848,24.313 10.514,24.603 10.52,24.607    10.852,24.319 11.138,24.649 11.145,24.645 10.858,24.314"></polygon>
	<path fill="rgb(249,202,227)" d="M15.805,11.854l-1.657,1.437c0.156,0.187,0.137,0.465-0.048,0.625c0,0,0,0,0,0l1.435,1.654   c0.188-0.162,0.471-0.142,0.632,0.045l1.655-1.434c-0.16-0.186-0.141-0.463,0.041-0.626l-1.436-1.657   c-0.14,0.117-0.331,0.136-0.485,0.06C15.89,11.934,15.845,11.898,15.805,11.854z M16.321,13.439   c0.163,0.187,0.143,0.47-0.044,0.632c-0.188,0.163-0.47,0.143-0.632-0.045c-0.163-0.187-0.143-0.47,0.045-0.632   C15.876,13.232,16.159,13.252,16.321,13.439z"></path>
	<path fill="rgb(249,202,227)" d="M18.498,13.594l0.445-0.385l-2.376-1.77c0.043,0.161,0,0.338-0.135,0.455l1.434,1.655   C18.053,13.387,18.336,13.407,18.498,13.594z"></path>
	<path fill="rgb(249,202,227)" d="M4.05,21.805c-0.053-0.164-0.008-0.35,0.128-0.472l-0.135-0.155l-0.282,1.107l0.375-0.326   C4.097,21.913,4.068,21.86,4.05,21.805z"></path>
	<path fill="rgb(249,202,227)" d="M4.815,21.372l1.655-1.435h0c0,0,0,0,0,0c-0.16-0.185-0.141-0.463,0.041-0.625l-1.437-1.657   c-0.047,0.039-0.1,0.067-0.155,0.084l-0.334,1.313c0.141-0.015,0.286,0.028,0.385,0.144c0.162,0.188,0.143,0.47-0.045,0.632   c-0.158,0.137-0.38,0.136-0.544,0.023l-0.335,1.318l0.137,0.158C4.37,21.165,4.653,21.186,4.815,21.372z"></path>
	<path fill="rgb(249,202,227)" d="M6.516,19.305c0.187-0.162,0.469-0.142,0.631,0.045l1.655-1.435c-0.16-0.186-0.141-0.463,0.041-0.626   l-1.437-1.657c-0.14,0.117-0.33,0.136-0.485,0.06c-0.05-0.025-0.096-0.061-0.135-0.104l-1.657,1.437   c0.156,0.187,0.136,0.465-0.048,0.625h0c0,0,0,0,0,0L6.516,19.305L6.516,19.305z M6.67,17.128c0.187-0.162,0.469-0.142,0.632,0.045   c0.162,0.187,0.142,0.47-0.044,0.632c-0.188,0.163-0.471,0.143-0.632-0.045C6.463,17.573,6.482,17.291,6.67,17.128z"></path>
	<path fill="rgb(249,202,227)" d="M8.847,17.283c0.188-0.163,0.47-0.142,0.632,0.045l1.655-1.435c-0.16-0.185-0.141-0.464,0.041-0.627   l-1.437-1.657c-0.185,0.156-0.458,0.136-0.62-0.044l-1.657,1.437c0.156,0.188,0.137,0.465-0.049,0.626L8.847,17.283z M9.002,15.106   c0.188-0.162,0.47-0.142,0.632,0.045c0.163,0.187,0.142,0.47-0.044,0.632c-0.188,0.162-0.47,0.142-0.633-0.045   C8.795,15.551,8.815,15.269,9.002,15.106z"></path>
	<path fill="rgb(249,202,227)" d="M11.45,11.544l-1.657,1.437c0.156,0.187,0.137,0.464-0.048,0.625c0,0,0,0-0.001,0.001l1.435,1.654   c0,0,0,0,0,0c0.141-0.121,0.334-0.14,0.491-0.063c0.052,0.026,0.1,0.062,0.141,0.109l1.655-1.435   c-0.161-0.185-0.142-0.463,0.04-0.626l-1.437-1.657C11.885,11.743,11.611,11.724,11.45,11.544z M11.922,13.761   c-0.188,0.163-0.47,0.143-0.632-0.045c-0.163-0.187-0.143-0.47,0.045-0.632c0.187-0.162,0.47-0.142,0.632,0.045   C12.128,13.316,12.108,13.599,11.922,13.761z"></path>
	<path fill="rgb(249,202,227)" d="M12.077,11.585l1.435,1.654c0.187-0.163,0.47-0.142,0.632,0.045c0,0,0,0,0,0l1.655-1.435   c-0.161-0.185-0.141-0.464,0.041-0.626l-0.794-0.916l-0.87-0.648c-0.143,0.02-0.29-0.023-0.393-0.137l-1.657,1.437   C12.282,11.146,12.262,11.424,12.077,11.585z M13.667,11.062c0.187-0.162,0.47-0.142,0.632,0.045   c0.162,0.187,0.142,0.47-0.045,0.632s-0.47,0.142-0.632-0.045C13.46,11.507,13.479,11.225,13.667,11.062z"></path>
	<path fill="rgb(249,202,227)" d="M16.129,11.113l-1.055-0.785l0.771,0.889C15.927,11.146,16.028,11.116,16.129,11.113z"></path>
	<path fill="rgb(249,202,227)" d="M6.78,15.583c-0.041-0.047-0.07-0.1-0.087-0.155c-0.053-0.164-0.008-0.35,0.128-0.471l-0.923-1.064   l-0.792,3.11c0.006,0.006,0.014,0.008,0.019,0.015L6.78,15.583z"></path>
	<path fill="rgb(249,202,227)" d="M6.825,14.951c0.187-0.162,0.47-0.142,0.632,0.045c0,0,0,0,0,0l1.655-1.435   c-0.041-0.047-0.07-0.1-0.088-0.155c-0.053-0.164-0.008-0.35,0.128-0.471l-1.437-1.657c-0.186,0.155-0.459,0.135-0.621-0.044   l-0.669,0.58L5.9,13.884L6.825,14.951C6.825,14.951,6.825,14.951,6.825,14.951z M6.98,12.774c0.187-0.163,0.47-0.143,0.632,0.045   c0.162,0.187,0.142,0.47-0.045,0.632c-0.188,0.162-0.471,0.142-0.632-0.045C6.772,13.219,6.792,12.936,6.98,12.774z"></path>
	<path fill="rgb(249,202,227)" d="M7.722,11.274l1.435,1.654c0,0,0,0,0,0c0.187-0.162,0.47-0.142,0.632,0.045l1.655-1.435   c-0.121-0.14-0.141-0.334-0.063-0.491c0.024-0.05,0.06-0.095,0.104-0.135l-1.437-1.657c-0.186,0.155-0.459,0.135-0.62-0.044   l-1.657,1.437C7.928,10.835,7.908,11.113,7.722,11.274C7.723,11.274,7.723,11.274,7.722,11.274z M9.312,10.752   c0.188-0.162,0.47-0.143,0.632,0.045c0.162,0.187,0.142,0.47-0.045,0.632c-0.188,0.163-0.47,0.142-0.633-0.045   C9.105,11.197,9.125,10.914,9.312,10.752z"></path>
	<path fill="rgb(249,202,227)" d="M10.055,9.252l1.434,1.655c0,0,0,0,0,0c0.188-0.163,0.47-0.142,0.632,0.045v0l1.654-1.435   c-0.041-0.047-0.07-0.1-0.087-0.155c-0.008-0.023-0.005-0.048-0.009-0.072l-2.336-1.74l-1.24,1.075   C10.26,8.813,10.241,9.092,10.055,9.252z M11.645,8.73c0.187-0.163,0.47-0.143,0.632,0.045c0.162,0.187,0.142,0.47-0.045,0.632   c-0.188,0.162-0.47,0.142-0.632-0.045C11.437,9.175,11.458,8.892,11.645,8.73z"></path>
	<path fill="rgb(249,202,227)" d="M7.131,10.603L6.825,10.25L6.43,11.801l0.66-0.572C6.93,11.044,6.949,10.766,7.131,10.603z"></path>
	<path fill="rgb(249,202,227)" d="M7.768,10.641C7.768,10.642,7.768,10.642,7.768,10.641l1.655-1.434h0v0   C9.262,9.021,9.282,8.744,9.463,8.581L8.026,6.923C7.917,7.015,7.779,7.04,7.649,7.012L7.291,8.419   C7.477,8.257,7.76,8.278,7.922,8.465s0.143,0.469-0.045,0.631C7.69,9.259,7.408,9.239,7.246,9.052   c-0.037-0.042-0.062-0.091-0.08-0.141l-0.339,1.33l0.308,0.355C7.323,10.434,7.605,10.454,7.768,10.641z"></path>
	<path fill="rgb(249,202,227)" d="M8.033,6.92l1.435,1.654c0.187-0.162,0.47-0.142,0.632,0.045l1.238-1.073l-0.987-0.734   c-0.017,0.098-0.06,0.192-0.141,0.263C10.022,7.237,9.739,7.217,9.578,7.03C9.416,6.843,9.436,6.56,9.623,6.397   C9.652,6.372,9.687,6.358,9.72,6.342L8.809,5.664l-0.727,0.63C8.238,6.481,8.218,6.759,8.033,6.92z"></path>
	<path fill="rgb(249,202,227)" d="M8.802,5.659l-0.68-0.506L7.866,6.159C7.945,6.183,8.02,6.221,8.078,6.287L8.802,5.659z"></path>
	<path fill="rgb(249,202,227)" d="M153.314,77.149c0.11-0.222,0.379-0.311,0.602-0.2l0.978-1.959c0,0-0.001,0-0.001,0   c-0.219-0.11-0.308-0.374-0.202-0.595l-1.963-0.979c-0.111,0.214-0.372,0.301-0.59,0.197l-0.979,1.962   c0.218,0.113,0.306,0.376,0.196,0.597v0c-0.001,0.002-0.004,0.004-0.005,0.006c-0.112,0.214-0.373,0.3-0.59,0.196l-0.979,1.963   c0.218,0.111,0.305,0.376,0.196,0.596l1.959,0.978h0.001c0,0,0,0,0,0c0.11-0.222,0.379-0.312,0.601-0.201l0.978-1.959   c-0.001,0-0.001,0-0.001,0c-0.219-0.109-0.307-0.374-0.202-0.595C153.313,77.154,153.313,77.151,153.314,77.149z M152.046,78.242   c-0.109,0.222-0.379,0.313-0.601,0.201c-0.221-0.11-0.311-0.379-0.2-0.601c0.11-0.222,0.379-0.312,0.601-0.201   C152.067,77.751,152.157,78.021,152.046,78.242z M152.822,75.681c-0.221-0.111-0.312-0.379-0.199-0.602   c0.109-0.221,0.379-0.312,0.6-0.2c0.223,0.111,0.313,0.379,0.201,0.601C153.313,75.702,153.045,75.791,152.822,75.681z"></path>
	<path fill="rgb(249,202,227)" d="M147.791,74.394C147.791,74.394,147.791,74.394,147.791,74.394c0.109-0.223,0.379-0.313,0.601-0.202   l0.978-1.96c-0.22-0.109-0.309-0.374-0.203-0.594l-1.963-0.979c-0.111,0.215-0.371,0.301-0.589,0.198l-0.156,0.314l0.401,2.758v0   L147.791,74.394z M147.099,72.323c0.109-0.221,0.379-0.311,0.601-0.2c0.221,0.11,0.311,0.379,0.2,0.602   c-0.109,0.221-0.379,0.311-0.602,0.201C147.077,72.814,146.987,72.545,147.099,72.323z"></path>
	<path fill="rgb(249,202,227)" d="M146.607,70.855C146.607,70.855,146.607,70.855,146.607,70.855   C146.606,70.855,146.606,70.855,146.607,70.855c-0.221-0.111-0.31-0.375-0.203-0.595l-0.085-0.042l0.137,0.939v0L146.607,70.855z"></path>
	<path fill="rgb(249,202,227)" d="M158.147,76.307c-0.131,0.112-0.319,0.14-0.484,0.062c-0.003-0.001-0.005-0.001-0.008-0.002v0.001   c-0.166-0.084-0.259-0.255-0.247-0.43c0.003-0.056,0.019-0.111,0.044-0.165l-1.962-0.979c-0.111,0.214-0.37,0.3-0.589,0.197   l-0.979,1.962c0.216,0.112,0.304,0.376,0.194,0.596l0.001,0l1.959,0.978c0.028-0.055,0.065-0.103,0.109-0.14   c0.133-0.114,0.326-0.143,0.492-0.061c0,0,0,0,0,0c0,0,0,0,0.001,0c0.002,0.001,0.003,0.003,0.005,0.004   c0.216,0.111,0.305,0.376,0.195,0.595l0.11,0.055l1.729-2.578l-0.466-0.232C158.225,76.224,158.189,76.27,158.147,76.307z    M156.186,76.857c-0.11,0.222-0.378,0.313-0.6,0.201c-0.223-0.111-0.312-0.379-0.202-0.601c0.11-0.223,0.38-0.312,0.602-0.201   C156.206,76.367,156.297,76.636,156.186,76.857z"></path>
	<path fill="rgb(249,202,227)" d="M159.041,73.606c-0.003-0.001-0.005,0-0.008-0.002c-0.22-0.11-0.309-0.374-0.202-0.594l-1.964-0.979   c-0.11,0.215-0.369,0.301-0.589,0.197l-0.978,1.963c0.215,0.113,0.303,0.376,0.193,0.596l1.96,0.978l0.001,0v0   c0.027-0.056,0.064-0.103,0.109-0.141c0.132-0.113,0.325-0.143,0.491-0.06v0c0.001,0,0.001,0,0.001,0   c0.002,0.001,0.003,0.003,0.006,0.004c0.215,0.112,0.304,0.377,0.194,0.598l0.466,0.232l0.758-1.131   c0.001-0.065,0.013-0.131,0.044-0.193c0.049-0.097,0.131-0.164,0.223-0.205l0.704-1.05l-0.82-0.409   C159.519,73.623,159.259,73.709,159.041,73.606z M157.563,74.096c-0.109,0.222-0.378,0.311-0.601,0.201   c-0.221-0.111-0.311-0.379-0.2-0.602c0.109-0.221,0.379-0.311,0.602-0.201C157.584,73.605,157.675,73.874,157.563,74.096z"></path>
	<path fill="rgb(249,202,227)" d="M160.903,70.782c-0.132,0.112-0.32,0.141-0.484,0.062l-0.979,1.962c0.216,0.112,0.305,0.377,0.195,0.597   c0,0,0,0,0,0l0.819,0.409l0.619-0.923c-0.197-0.12-0.276-0.368-0.172-0.578c0.11-0.222,0.38-0.312,0.602-0.201   c0.024,0.012,0.04,0.032,0.061,0.047l0.62-0.923l-1.177-0.586C160.98,70.7,160.945,70.746,160.903,70.782z"></path>
	<path fill="rgb(249,202,227)" d="M162.881,69.348c0.191,0.095,0.276,0.309,0.227,0.508l0.771-1.148l-2.127-0.535l-0.007-0.002h-0.001   l-3.058-0.768l-0.63,1.264c0.052,0.027,0.098,0.063,0.134,0.105c0.113,0.133,0.144,0.325,0.061,0.492l0.001,0   c-0.001,0.002-0.004,0.004-0.005,0.006c-0.111,0.214-0.37,0.3-0.589,0.197l-0.979,1.962c0.216,0.112,0.304,0.377,0.194,0.597   l1.961,0.979c0,0,0,0,0,0c0.11-0.221,0.378-0.311,0.601-0.202l0.978-1.959c-0.219-0.11-0.307-0.373-0.202-0.593   c0.001-0.002,0-0.005,0.002-0.007c0,0,0,0,0,0c0,0,0,0,0-0.001c0.11-0.222,0.378-0.311,0.6-0.2l0.001-0.001   c0.002,0.001,0.004,0.003,0.006,0.005c0.217,0.113,0.306,0.376,0.195,0.598l1.176,0.586l0.75-1.119   c-0.131,0.093-0.305,0.118-0.457,0.042c-0.222-0.111-0.312-0.379-0.201-0.603C162.391,69.327,162.66,69.236,162.881,69.348z    M158.942,71.333c-0.11,0.222-0.378,0.313-0.602,0.202c-0.222-0.111-0.311-0.38-0.2-0.602c0.11-0.222,0.379-0.312,0.602-0.2   C158.963,70.843,159.052,71.112,158.942,71.333z M160.32,68.571c-0.111,0.222-0.38,0.311-0.602,0.202   c-0.222-0.111-0.311-0.379-0.2-0.603c0.11-0.221,0.378-0.311,0.601-0.2C160.341,68.081,160.43,68.35,160.32,68.571z"></path>
	<path fill="rgb(249,202,227)" d="M155.294,74.186l0.978-1.959h-0.001c-0.218-0.109-0.307-0.374-0.202-0.594l-1.962-0.978   c-0.112,0.214-0.372,0.3-0.59,0.196l-0.979,1.962c0.218,0.112,0.306,0.377,0.195,0.597l1.96,0.978   c0.027-0.055,0.065-0.103,0.109-0.14C154.935,74.134,155.127,74.104,155.294,74.186z M154.803,72.717   c-0.111,0.221-0.38,0.313-0.602,0.201s-0.312-0.38-0.201-0.601c0.111-0.222,0.379-0.312,0.601-0.2   C154.823,72.227,154.913,72.496,154.803,72.717z"></path>
	<path fill="rgb(249,202,227)" d="M155.535,67.713c-0.004,0.058-0.02,0.116-0.047,0.171c0,0,0,0,0,0c-0.001,0.002-0.004,0.003-0.005,0.006   c-0.027,0.052-0.063,0.098-0.104,0.134c-0.131,0.112-0.319,0.141-0.484,0.063l-0.979,1.962c0.216,0.114,0.306,0.378,0.195,0.597   c0,0,0,0,0,0l1.959,0.977l0.001,0c0,0,0,0,0-0.001c0.109-0.221,0.378-0.311,0.601-0.201l0.978-1.959c0,0-0.001,0-0.001,0   c-0.219-0.109-0.309-0.374-0.201-0.594c0.001-0.002,0.001-0.004,0.002-0.006c0,0,0,0,0,0c0.027-0.056,0.064-0.103,0.108-0.141   c0.133-0.114,0.326-0.144,0.492-0.061l0.629-1.261l-1.103-0.277c-0.007,0.023-0.008,0.047-0.019,0.069   c-0.109,0.221-0.379,0.312-0.602,0.201c-0.184-0.092-0.27-0.292-0.231-0.484l-1.104-0.277l-0.328,0.657   C155.454,67.373,155.546,67.542,155.535,67.713z M155.979,69.354c0.221,0.111,0.312,0.379,0.2,0.601   c-0.109,0.222-0.379,0.311-0.601,0.201c-0.221-0.111-0.312-0.379-0.201-0.602C155.488,69.333,155.758,69.243,155.979,69.354z"></path>
	<path fill="rgb(249,202,227)" d="M156.285,79.131c-0.002-0.001-0.005,0-0.007-0.002c-0.001,0-0.001,0-0.001,0   c-0.219-0.11-0.308-0.375-0.203-0.595l-1.961-0.979c-0.085,0.162-0.254,0.252-0.426,0.242c-0.056-0.003-0.111-0.019-0.164-0.044   l-0.979,1.962c0.053,0.027,0.099,0.062,0.135,0.104c0.114,0.133,0.144,0.326,0.06,0.492c-0.001,0.002-0.004,0.004-0.005,0.006   c-0.111,0.215-0.371,0.301-0.589,0.196l-0.979,1.963c0.217,0.112,0.306,0.377,0.195,0.597l1.959,0.978   c0.085-0.168,0.26-0.259,0.435-0.246l0.742-1.106l0.001-0.001l0.031-0.046l0.488-0.729c-0.037-0.007-0.074-0.013-0.109-0.03   c-0.003-0.001-0.006-0.001-0.008-0.002v0c-0.001,0-0.001,0-0.001,0c-0.165-0.083-0.258-0.256-0.247-0.43   c0.003-0.055,0.019-0.111,0.044-0.164c0.001-0.002,0.001-0.005,0.002-0.008c0,0,0,0,0,0c0.11-0.222,0.38-0.311,0.602-0.2   c0,0,0,0,0.001,0v0c0.002,0.001,0.004,0.003,0.006,0.005c0.07,0.037,0.122,0.092,0.163,0.155l1.516-2.26l-0.111-0.055   C156.763,79.147,156.504,79.234,156.285,79.131z M153.431,82.382c-0.111,0.222-0.38,0.312-0.601,0.202   c-0.222-0.111-0.313-0.379-0.201-0.602c0.109-0.222,0.38-0.311,0.601-0.201C153.451,81.892,153.542,82.161,153.431,82.382z    M154.809,79.62c-0.111,0.222-0.379,0.311-0.601,0.201c-0.223-0.111-0.312-0.379-0.202-0.603c0.111-0.22,0.38-0.311,0.602-0.2   C154.83,79.129,154.92,79.398,154.809,79.62z"></path>
	<path fill="rgb(249,202,227)" d="M153.317,84.058l-1.961-0.978c-0.112,0.215-0.373,0.301-0.59,0.197l-0.979,1.962   c0.053,0.027,0.099,0.063,0.135,0.105c0.114,0.133,0.145,0.326,0.062,0.492c0,0,0,0-0.001,0c-0.001,0.003-0.003,0.004-0.005,0.006   c-0.113,0.214-0.372,0.301-0.589,0.196c-0.002-0.001-0.005-0.001-0.007-0.002c0,0,0,0,0,0c-0.22-0.109-0.308-0.373-0.203-0.593   c0.001-0.002,0.001-0.005,0.002-0.007l0.001,0c0,0,0,0,0-0.001c0.109-0.221,0.379-0.311,0.6-0.201l0.978-1.96   c-0.219-0.11-0.307-0.374-0.202-0.594l-1.963-0.979c-0.108,0.209-0.357,0.293-0.573,0.201l0.464,3.186l0.001,0.008l0.309,2.116   l0.002,0.014l0.23,1.581v0l0.001,0.009l0.196,1.35c0.062,0.066,0.095,0.149,0.107,0.237l0.722-1.076l0.004-0.006l1.729-2.579   l0.004-0.006l1.537-2.292C153.268,84.327,153.257,84.187,153.317,84.058z M148.689,83.967c-0.222-0.11-0.312-0.379-0.2-0.601   c0.109-0.222,0.378-0.312,0.601-0.201c0.221,0.11,0.312,0.379,0.2,0.601C149.181,83.987,148.91,84.078,148.689,83.967z    M150.675,87.906c-0.11,0.222-0.381,0.313-0.602,0.202c-0.221-0.112-0.312-0.38-0.201-0.602c0.111-0.222,0.38-0.312,0.602-0.201   C150.695,87.416,150.785,87.685,150.675,87.906z M152.054,85.145c-0.111,0.221-0.381,0.311-0.602,0.201   c-0.222-0.111-0.312-0.379-0.202-0.603c0.111-0.221,0.38-0.311,0.601-0.2C152.074,84.654,152.163,84.922,152.054,85.145z"></path>
	<path fill="rgb(249,202,227)" d="M148.398,81.095c0.002,0.001,0.004,0.003,0.006,0.005c0.053,0.027,0.098,0.063,0.134,0.104   c0.113,0.133,0.144,0.326,0.061,0.492l1.96,0.978c0.111-0.222,0.379-0.312,0.601-0.201l0.979-1.96   c-0.22-0.11-0.308-0.374-0.203-0.594l-1.962-0.979c-0.111,0.214-0.373,0.3-0.59,0.197c-0.003-0.001-0.005,0-0.008-0.002   c-0.219-0.11-0.308-0.374-0.202-0.594l-1.771-0.883l0.195,1.338c0.036,0.008,0.073,0.012,0.108,0.029   c0.221,0.11,0.311,0.379,0.2,0.6c-0.042,0.085-0.112,0.145-0.19,0.187l0.195,1.34C148.043,81.042,148.233,81.013,148.398,81.095z    M149.866,80.603c0.111-0.22,0.379-0.311,0.602-0.2c0.222,0.111,0.311,0.379,0.201,0.601c-0.111,0.222-0.38,0.312-0.602,0.202   C149.846,81.095,149.757,80.826,149.866,80.603z"></path>
	<path fill="rgb(249,202,227)" d="M149.175,78.533c0.111-0.222,0.379-0.311,0.601-0.2l0.979-1.96c-0.22-0.11-0.309-0.374-0.204-0.594   l-1.962-0.979c-0.027,0.052-0.063,0.098-0.104,0.134c-0.131,0.112-0.32,0.141-0.484,0.063l-0.762,1.526l0.164,1.126L149.175,78.533   L149.175,78.533z M148.684,77.065c-0.222-0.111-0.312-0.379-0.202-0.602c0.111-0.221,0.38-0.312,0.602-0.201   s0.312,0.379,0.202,0.601C149.174,77.086,148.904,77.175,148.684,77.065z"></path>
	<path fill="rgb(249,202,227)" d="M148.593,74.794l1.959,0.978c0,0,0,0,0,0c0.028-0.055,0.066-0.102,0.11-0.14   c0.133-0.113,0.325-0.143,0.491-0.061l0.979-1.959c-0.001,0-0.001,0-0.001,0c-0.218-0.11-0.308-0.374-0.203-0.594l-1.962-0.979   c-0.112,0.214-0.372,0.301-0.589,0.196l-0.979,1.963C148.613,74.31,148.702,74.574,148.593,74.794L148.593,74.794z M149.859,73.701   c0.111-0.222,0.38-0.311,0.602-0.2c0.222,0.11,0.312,0.379,0.202,0.601c-0.112,0.221-0.381,0.312-0.602,0.201   C149.839,74.191,149.75,73.923,149.859,73.701z"></path>
	<path fill="rgb(249,202,227)" d="M150.754,69.473l-0.979,1.962c0.217,0.113,0.306,0.377,0.195,0.598l1.959,0.977l0.001,0v0   c0.11-0.222,0.38-0.311,0.601-0.201c0,0,0,0,0.001,0l0.978-1.96c-0.001,0-0.001,0-0.001,0c-0.219-0.11-0.309-0.374-0.203-0.594   l-1.963-0.979C151.231,69.49,150.972,69.576,150.754,69.473z M151.238,70.938c0.109-0.221,0.38-0.311,0.601-0.2   c0.222,0.111,0.313,0.379,0.201,0.602c-0.11,0.222-0.38,0.311-0.601,0.201C151.218,71.43,151.127,71.162,151.238,70.938z"></path>
	<path fill="rgb(249,202,227)" d="M152.722,66.513c-0.11,0.214-0.37,0.301-0.589,0.197l-0.979,1.962c0.217,0.112,0.305,0.377,0.194,0.596   l1.96,0.979c0.111-0.223,0.38-0.312,0.602-0.202v0l0.979-1.959c-0.22-0.11-0.309-0.375-0.204-0.594L152.722,66.513z    M153.418,68.577c-0.111,0.221-0.379,0.312-0.601,0.201c-0.222-0.111-0.312-0.379-0.201-0.602c0.11-0.221,0.379-0.311,0.601-0.2   C153.439,68.086,153.529,68.356,153.418,68.577z"></path>
	<path fill="rgb(249,202,227)" d="M152.727,66.507l1.959,0.977l0.001,0c0.109-0.222,0.379-0.311,0.601-0.201c0,0,0,0,0.001,0l0.325-0.653v0   l-3.058-0.768l-0.023,0.048C152.749,66.024,152.837,66.287,152.727,66.507z"></path>
	<path fill="rgb(249,202,227)" d="M147.789,74.401l-0.928-0.463l0.374,2.572l0.756-1.515C147.772,74.886,147.684,74.622,147.789,74.401z"></path>
	<path fill="rgb(249,202,227)" d="M149.168,71.632C149.168,71.631,149.168,71.631,149.168,71.632c0.111-0.223,0.379-0.312,0.601-0.202   l0.979-1.959c-0.219-0.11-0.307-0.374-0.203-0.594l-1.962-0.979c-0.113,0.213-0.373,0.299-0.59,0.196l-0.979,1.963   c0.217,0.112,0.304,0.376,0.195,0.596L149.168,71.632z M148.476,69.561c0.111-0.221,0.379-0.311,0.602-0.2   c0.222,0.11,0.311,0.379,0.201,0.6c-0.111,0.222-0.38,0.312-0.602,0.202C148.455,70.052,148.365,69.783,148.476,69.561z"></path>
	<path fill="rgb(249,202,227)" d="M148.587,67.892l1.959,0.977l0.001,0v0c0.11-0.221,0.378-0.311,0.601-0.201l0.978-1.959   c0,0-0.001,0-0.001,0c-0.218-0.11-0.308-0.374-0.201-0.594l-1.663-0.829l-0.349-0.087c-0.127,0.164-0.349,0.227-0.542,0.134   l-0.979,1.962C148.608,67.407,148.696,67.671,148.587,67.892z M149.854,66.799c0.11-0.221,0.379-0.312,0.601-0.201   c0.222,0.111,0.312,0.379,0.2,0.602c-0.109,0.222-0.38,0.312-0.601,0.201C149.834,67.29,149.743,67.021,149.854,66.799z"></path>
	<path fill="rgb(249,202,227)" d="M151.925,66.107c0.11-0.222,0.378-0.312,0.601-0.201l0.022-0.045l-2.252-0.566L151.925,66.107   C151.925,66.107,151.925,66.107,151.925,66.107z"></path>
	<path fill="rgb(249,202,227)" d="M146.516,70.113c0.133-0.114,0.326-0.144,0.491-0.061c0,0,0,0,0,0c0.001,0,0.001,0,0.001,0l0.978-1.96   c-0.001,0-0.001,0-0.001,0c-0.166-0.083-0.258-0.256-0.247-0.43c0.003-0.056,0.019-0.111,0.044-0.164l-1.962-0.979   c-0.009,0.016-0.022,0.027-0.032,0.042l0.203,1.395c0.104-0.031,0.22-0.026,0.325,0.026c0.22,0.11,0.311,0.379,0.2,0.601   c-0.077,0.156-0.235,0.243-0.399,0.244l0.202,1.383l0.088,0.044C146.434,70.198,146.472,70.151,146.516,70.113z"></path>
	<path fill="rgb(249,202,227)" d="M145.823,66.513l1.96,0.978c0.112-0.222,0.38-0.311,0.602-0.2c0,0,0,0,0.001,0V67.29l0.978-1.959   c-0.134-0.067-0.212-0.193-0.234-0.33l-2.703-0.68l-0.747,1.497l0.022,0.155c0.021,0.017,0.045,0.029,0.063,0.049   C145.876,66.154,145.906,66.346,145.823,66.513z M147.091,65.421c0.111-0.221,0.381-0.312,0.602-0.201   c0.222,0.111,0.312,0.379,0.202,0.602c-0.112,0.222-0.38,0.312-0.602,0.201C147.07,65.912,146.981,65.644,147.091,65.421z"></path>
	<polygon fill="rgb(249,202,227)" points="145.424,64.07 145.677,65.805 146.418,64.319"></polygon>
	<g>
		<path fill="rgb(249,202,227)" d="M85.684,68.846c0.05,0.097,0.06,0.205,0.037,0.31l1.485-2.097c-0.012-0.009-0.028-0.013-0.04-0.024    L85.67,68.63L85.684,68.846z"></path>
		<path fill="rgb(249,202,227)" d="M98.882,50.075c0.071,0.167,0.043,0.366-0.088,0.507c0,0,0,0,0,0c-0.134,0.142-0.335,0.183-0.508,0.119    c-0.058-0.021-0.112-0.054-0.16-0.098l0,0c-0.189-0.179-0.199-0.476-0.021-0.666h0c0.032-0.034,0.071-0.055,0.108-0.078    l-0.291-0.094l-2.659-0.857l-1.24-0.399c-0.176,0.105-0.403,0.094-0.561-0.054c-0.05-0.047-0.086-0.104-0.111-0.163l-1.506-0.486    l-0.186-0.06c0.055,0.021,0.107,0.052,0.153,0.095c0.189,0.178,0.199,0.475,0.021,0.666v0c-0.179,0.189-0.477,0.199-0.667,0.021    c-0.19-0.179-0.2-0.476-0.022-0.667h0h0c0.13-0.14,0.325-0.179,0.495-0.121l-0.952-0.307l-0.001,0l-2.262-0.729h0l-1.225-0.395    c-0.012,0.016-0.017,0.035-0.031,0.05c-0.179,0.19-0.477,0.2-0.666,0.021c-0.099-0.093-0.147-0.218-0.147-0.344l-1.35-0.435    l-0.154,0.164c0,0,0,0,0,0c0.19,0.178,0.199,0.477,0.021,0.667c0,0,0,0,0,0l0,0c-0.179,0.189-0.474,0.198-0.664,0.022l0.104,1.588    c0.18-0.144,0.438-0.145,0.612,0.018c0.19,0.178,0.2,0.477,0.021,0.667c-0.155,0.165-0.397,0.185-0.583,0.072l0.098,1.486    c0.173-0.09,0.389-0.071,0.538,0.07c0.191,0.178,0.2,0.476,0.022,0.667v0c-0.133,0.141-0.332,0.181-0.503,0.12l0.093,1.409    c0.157-0.049,0.334-0.022,0.462,0.099c0.19,0.179,0.2,0.477,0.021,0.667c-0.113,0.121-0.273,0.16-0.424,0.133l0.091,1.378    c0.136-0.019,0.278,0.016,0.387,0.117c0.047,0.044,0.083,0.097,0.108,0.152c0.074,0.168,0.046,0.372-0.087,0.514c0,0,0,0,0,0    c-0.094,0.1-0.22,0.147-0.347,0.146l0.089,1.359c0.111,0.003,0.222,0.041,0.31,0.123c0.19,0.178,0.199,0.476,0.021,0.666    c-0.075,0.079-0.171,0.12-0.271,0.136l0.091,1.383c0.083,0.017,0.165,0.048,0.231,0.11c0.189,0.178,0.2,0.476,0.021,0.666    c-0.055,0.059-0.123,0.094-0.194,0.118l0.093,1.416c0.055,0.021,0.107,0.052,0.153,0.095c0.19,0.179,0.199,0.477,0.021,0.667    c-0.035,0.037-0.077,0.061-0.119,0.084l0.099,1.5c0.023,0.015,0.05,0.024,0.072,0.044c0,0,0,0,0,0    c0.19,0.178,0.2,0.477,0.021,0.666c-0.013,0.014-0.031,0.02-0.045,0.032l0.105,1.607c0.167,0.167,0.18,0.426,0.041,0.612    l0.104,1.586l1.497-1.595c-0.19-0.178-0.2-0.476-0.021-0.667c0.158-0.169,0.409-0.187,0.597-0.065l1.577-2.227    c0.016-0.025,0.026-0.054,0.047-0.077h0c0.004-0.004,0.009-0.006,0.014-0.01l1.885-2.661l1.895-2.674l-1.032-0.967    c-0.179,0.189-0.477,0.199-0.667,0.021l0,0c-0.142-0.135-0.184-0.335-0.12-0.507c0.021-0.057,0.054-0.111,0.098-0.158    l-1.681-1.577c-0.044,0.047-0.096,0.083-0.152,0.108c-0.112,0.05-0.24,0.054-0.355,0.011c-0.058-0.021-0.112-0.054-0.16-0.098l0,0    c-0.047-0.044-0.083-0.096-0.108-0.152c-0.049-0.112-0.054-0.24-0.011-0.355c0.021-0.057,0.054-0.111,0.098-0.159l0,0    c0.178-0.189,0.478-0.199,0.667-0.021l1.577-1.681c-0.047-0.044-0.084-0.097-0.108-0.152c-0.075-0.168-0.047-0.371,0.087-0.513    l-1.681-1.577c-0.18,0.19-0.478,0.2-0.667,0.021l0,0c-0.047-0.044-0.083-0.097-0.108-0.152c-0.05-0.112-0.054-0.24-0.011-0.355    c0.021-0.057,0.054-0.111,0.099-0.158l-1.681-1.577c-0.045,0.047-0.097,0.083-0.152,0.108c-0.168,0.075-0.372,0.046-0.514-0.087v0    c-0.047-0.044-0.083-0.096-0.108-0.152c-0.049-0.112-0.054-0.24-0.011-0.355c0.021-0.057,0.054-0.111,0.098-0.159l-0.762-0.714    l0.762,0.714c0.178-0.19,0.476-0.199,0.666-0.021c0,0,0.001,0,0.001,0c0.19,0.178,0.2,0.476,0.021,0.666l0,0l1.682,1.577    c0,0,0,0,0,0c0.178-0.19,0.475-0.199,0.666-0.021c0,0,0,0,0,0c0,0,0,0,0,0c0.19,0.178,0.2,0.476,0.021,0.666l0,0l1.681,1.576    c0.178-0.19,0.476-0.2,0.666-0.021c0,0,0,0,0,0s0,0,0,0c0.19,0.178,0.2,0.476,0.021,0.666c0,0,0,0,0,0    c-0.178,0.189-0.476,0.198-0.666,0.021l-1.577,1.681c0,0,0,0,0,0c0.191,0.178,0.2,0.476,0.021,0.666l0,0l1.681,1.577    c0,0,0,0,0-0.001c0.178-0.19,0.476-0.199,0.666-0.021l1.577-1.68c-0.047-0.045-0.084-0.097-0.109-0.153    c-0.074-0.168-0.046-0.372,0.087-0.514c0,0,0,0,0,0c0.134-0.143,0.335-0.184,0.507-0.12c0.058,0.021,0.112,0.054,0.159,0.099    c0.047,0.044,0.084,0.097,0.108,0.152c0.075,0.168,0.047,0.372-0.086,0.514c-0.134,0.143-0.335,0.183-0.508,0.12    c-0.058-0.021-0.112-0.054-0.159-0.098l-1.576,1.68c0.19,0.178,0.199,0.476,0.021,0.667c0,0,0,0,0,0l1.031,0.967l0.685-0.966    c-0.029-0.017-0.061-0.029-0.087-0.054c-0.191-0.178-0.201-0.477-0.022-0.667c0.171-0.183,0.453-0.194,0.644-0.035l0.675-0.953    l0.786-1.109c0.011-0.098,0.044-0.194,0.117-0.271c0.044-0.047,0.096-0.083,0.152-0.107l0.84-1.186l1.895-2.675l0.327-0.462    L98.882,50.075z M91.514,59.335c0.178-0.188,0.476-0.198,0.667-0.02c0.189,0.178,0.199,0.477,0.021,0.667    c-0.178,0.19-0.477,0.2-0.667,0.021C91.345,59.825,91.336,59.527,91.514,59.335z M89.981,62.35    c-0.178,0.19-0.477,0.199-0.666,0.021c-0.191-0.178-0.2-0.477-0.022-0.667c0.178-0.19,0.476-0.199,0.667-0.021    C90.149,61.861,90.159,62.159,89.981,62.35z M89.907,60.055L89.907,60.055c-0.134,0.143-0.335,0.184-0.507,0.12    c-0.058-0.021-0.112-0.054-0.159-0.099c0,0,0,0,0,0l0,0c-0.142-0.134-0.184-0.334-0.121-0.507    c0.021-0.057,0.054-0.111,0.099-0.159l0,0c0.178-0.19,0.477-0.2,0.667-0.021C90.076,59.567,90.085,59.865,89.907,60.055z     M89.146,57.114c0.178-0.19,0.477-0.199,0.667-0.021c0.19,0.179,0.2,0.478,0.021,0.667c-0.178,0.19-0.476,0.201-0.666,0.021    C88.977,57.603,88.968,57.304,89.146,57.114z M88.999,52.524c0.178-0.189,0.476-0.199,0.667-0.021    c0.19,0.178,0.199,0.476,0.021,0.667c-0.178,0.19-0.477,0.199-0.667,0.021C88.83,53.013,88.821,52.715,88.999,52.524z     M87.76,64.718c-0.179,0.191-0.478,0.2-0.667,0.022c-0.19-0.178-0.2-0.476-0.021-0.668c0.178-0.188,0.476-0.198,0.666-0.02    C87.929,64.23,87.938,64.528,87.76,64.718z M87.686,62.423c-0.133,0.143-0.334,0.183-0.507,0.12    c-0.058-0.021-0.112-0.054-0.159-0.098v0c-0.191-0.179-0.2-0.476-0.022-0.666c0,0,0-0.001,0-0.001    c0.178-0.19,0.477-0.2,0.666-0.021c0,0,0,0,0,0c0.048,0.044,0.084,0.096,0.109,0.152C87.848,62.077,87.82,62.28,87.686,62.423z     M87.612,60.127c-0.178,0.19-0.476,0.201-0.667,0.022c-0.189-0.178-0.199-0.477-0.021-0.667c0.178-0.19,0.476-0.2,0.666-0.021    C87.781,59.64,87.791,59.938,87.612,60.127z M87.539,57.833L87.539,57.833c-0.134,0.143-0.334,0.183-0.507,0.12    c-0.057-0.021-0.112-0.054-0.159-0.099c0,0,0,0,0,0c-0.189-0.178-0.199-0.476-0.021-0.666c0,0,0,0,0,0    c0.178-0.19,0.477-0.2,0.666-0.022c0,0,0,0,0,0C87.708,57.345,87.717,57.643,87.539,57.833z M87.465,55.538    c-0.178,0.19-0.476,0.2-0.667,0.021c-0.19-0.178-0.199-0.476-0.021-0.667c0.178-0.189,0.476-0.198,0.667-0.021    C87.634,55.05,87.643,55.348,87.465,55.538z M87.392,53.244C87.392,53.244,87.392,53.244,87.392,53.244L87.392,53.244    c-0.134,0.142-0.335,0.183-0.507,0.12c-0.057-0.021-0.111-0.054-0.159-0.099l0,0c-0.142-0.134-0.184-0.335-0.12-0.507    c0.021-0.057,0.054-0.111,0.098-0.158l0-0.001l0,0c0.178-0.19,0.477-0.199,0.667-0.021c0,0,0,0,0,0    C87.56,52.755,87.569,53.053,87.392,53.244z M86.63,50.303c0.178-0.19,0.476-0.199,0.666-0.021c0.19,0.179,0.2,0.477,0.021,0.666    c-0.178,0.19-0.476,0.201-0.667,0.022C86.461,50.792,86.452,50.493,86.63,50.303z M89.54,48.58c-0.179,0.19-0.477,0.2-0.667,0.021    c-0.19-0.178-0.2-0.476-0.021-0.667c0.178-0.19,0.476-0.199,0.666-0.021C89.709,48.092,89.718,48.39,89.54,48.58z M91.908,50.801    c-0.179,0.19-0.477,0.2-0.667,0.021c-0.189-0.178-0.2-0.476-0.021-0.667c0.179-0.188,0.476-0.198,0.667-0.021    C92.077,50.313,92.086,50.611,91.908,50.801z M92.056,55.391c-0.179,0.19-0.477,0.2-0.667,0.021    c-0.19-0.178-0.2-0.477-0.021-0.667c0.178-0.19,0.477-0.2,0.667-0.021C92.225,54.903,92.234,55.202,92.056,55.391z M93.515,50.083    C93.515,50.083,93.515,50.083,93.515,50.083c0.179-0.189,0.477-0.199,0.666-0.021c0,0,0,0,0.001,0v0    c0.19,0.178,0.2,0.476,0.021,0.666c0,0,0,0,0,0c-0.178,0.19-0.476,0.2-0.666,0.022v0c0,0,0,0,0,0    C93.347,50.571,93.338,50.274,93.515,50.083z M94.277,53.022c-0.179,0.19-0.477,0.201-0.667,0.021    c-0.19-0.178-0.2-0.476-0.021-0.666c0.178-0.19,0.476-0.2,0.666-0.021C94.446,52.535,94.455,52.833,94.277,53.022z M95.81,50.009    c0.178-0.19,0.476-0.2,0.666-0.021c0.19,0.179,0.2,0.477,0.021,0.667c-0.178,0.19-0.476,0.2-0.666,0.021    C95.641,50.498,95.632,50.2,95.81,50.009z M96.572,52.95c-0.135,0.143-0.335,0.184-0.508,0.12    c-0.058-0.021-0.112-0.054-0.159-0.098c0,0,0,0,0,0c-0.047-0.044-0.083-0.097-0.108-0.153c-0.074-0.168-0.046-0.372,0.087-0.514    c0,0,0,0,0,0c0.178-0.19,0.477-0.199,0.667-0.021c0,0,0,0,0,0c0.047,0.044,0.083,0.096,0.108,0.152    C96.733,52.604,96.705,52.807,96.572,52.95L96.572,52.95z"></path>
		<path fill="rgb(249,202,227)" d="M84.167,45.767L84.167,45.767l0.003,0.051c0.008-0.009,0.01-0.021,0.019-0.03l0,0c0,0,0,0,0,0    c0.178-0.19,0.477-0.199,0.666-0.021l0.154-0.165l-0.872-0.281L84.167,45.767z"></path>
		<polygon fill="rgb(249,202,227)" points="92.107,57.02 92.108,57.02 92.108,57.02 93.684,55.34 93.684,55.34"></polygon>
	</g>
</g><g>
	<g>
		<polygon fill-rule="evenodd" fill="rgb(145,187,237)" points="44.563,28.148 62.429,36.076 45.649,53.293"></polygon>
	</g>
	<g>
		<polygon fill-rule="evenodd" fill="rgb(145,187,237)" points="166.913,68.942 186.003,73.146 172.996,93.364"></polygon>
	</g>
</g><g>
	<polygon fill-rule="evenodd" fill="#EFCF20" points="101.86,50.716 119.913,55.988 105.28,75.162"></polygon>
</g><g>
	<polygon fill="#18A080" points="27.789,19.522 26.097,20.641 25.573,23.274 29.689,20.554"></polygon>
	<polygon fill="#18A080" points="31.834,21.718 24.983,26.245 24.459,28.879 33.736,22.75"></polygon>
	<polygon fill="#18A080" points="35.882,23.915 23.869,31.853 23.345,34.486 37.783,24.946"></polygon>
	<polygon fill="#18A080" points="22.231,40.092 41.83,27.142 39.929,26.11 22.755,37.458"></polygon>
	<g>
		<polygon fill="#18A080" points="124.411,58.063 122.589,60.107 122.717,62.835 126.488,58.604"></polygon>
		<polygon fill="#18A080" points="128.829,59.211 122.86,65.908 122.988,68.635 130.906,59.751"></polygon>
		<polygon fill="#18A080" points="133.25,60.36 123.132,71.712 123.26,74.439 135.326,60.9"></polygon>
		<polygon fill="#18A080" points="123.403,77.513 123.531,80.24 139.743,62.047 137.667,61.508"></polygon>
	</g>
	<g>
		<polygon fill="#18A080" points="80.021,43.293 78.044,42.495 78.506,48.438 80.264,46.406"></polygon>
		<polygon fill="#18A080" points="73.836,40.795 74.767,52.762 76.523,50.73 75.813,41.593"></polygon>
		<polygon fill="#18A080" points="72.786,55.053 71.606,39.895 69.629,39.096 71.029,57.084"></polygon>
		<polygon fill="#18A080" points="65.422,37.397 67.29,61.408 69.046,59.377 67.399,38.195"></polygon>
	</g>
</g><g>
	<polygon fill="#FFFFFF" points="21.6,22.568 21.601,22.568 21.6,22.568"></polygon>
	<polygon fill="#FFFFFF" points="14.913,24.281 14.914,24.28 14.913,24.28"></polygon>
	<rect x="1.862" y="32.103" fill="#FFFFFF" width="0.001" height="0"></rect>
	<path fill="#FFFFFF" d="M13.523,21.993L13.523,21.993c-0.162-0.188-0.444-0.208-0.632-0.045v0   c-0.002,0.001-0.003,0.004-0.005,0.005c-0.043,0.04-0.079,0.085-0.104,0.135c-0.077,0.157-0.059,0.352,0.063,0.491c0,0,0,0,0,0   l0.333-0.289l0.005-0.004l-0.339,0.294c0.002,0.002,0.004,0.003,0.006,0.005c0.161,0.179,0.434,0.199,0.62,0.043   c0.002-0.001,0.004-0.002,0.006-0.003c0.185-0.161,0.205-0.438,0.049-0.625C13.526,21.998,13.525,21.995,13.523,21.993z"></path>
	<path fill="#FFFFFF" d="M15.856,19.971c-0.163-0.187-0.445-0.208-0.632-0.045c0,0,0,0,0,0l0,0   c-0.002,0.001-0.002,0.004-0.004,0.005c-0.182,0.164-0.201,0.441-0.041,0.625v0l0,0c0.001,0.002,0.004,0.002,0.006,0.004   c0.162,0.179,0.435,0.199,0.62,0.044c0.002-0.002,0.004-0.002,0.006-0.004l0,0c0,0,0,0,0,0c0.186-0.16,0.206-0.438,0.049-0.625   C15.858,19.976,15.858,19.973,15.856,19.971z"></path>
	<path fill="#FFFFFF" d="M18.188,17.949c-0.162-0.188-0.445-0.208-0.632-0.045c-0.002,0.002-0.003,0.004-0.005,0.006   c-0.182,0.163-0.201,0.441-0.041,0.626c0.002,0.002,0.004,0.003,0.006,0.004c0.161,0.18,0.435,0.2,0.62,0.044   c0.002-0.001,0.004-0.002,0.006-0.003c0,0,0,0,0,0l0,0c0.186-0.161,0.205-0.439,0.049-0.626   C18.19,17.953,18.19,17.951,18.188,17.949z"></path>
	<path fill="#FFFFFF" d="M20.52,15.927c-0.162-0.188-0.445-0.208-0.631-0.045c0,0,0,0,0,0l0,0c-0.002,0.001-0.003,0.004-0.005,0.006   c-0.135,0.122-0.181,0.307-0.128,0.471c0.018,0.056,0.047,0.108,0.087,0.155c0.001,0.002,0.004,0.002,0.006,0.004   c0.04,0.044,0.085,0.08,0.135,0.104c0.155,0.076,0.345,0.057,0.485-0.06c0.002-0.002,0.005-0.002,0.007-0.004   c0.186-0.16,0.205-0.438,0.048-0.625C20.522,15.932,20.522,15.929,20.52,15.927z"></path>
	<circle fill="#FFFFFF" cx="4.011" cy="28.198" r="0.448"></circle>
	<path fill="#FFFFFF" d="M4.505,25.727C4.343,25.54,4.06,25.52,3.873,25.682c0,0,0,0,0,0c-0.002,0.001-0.002,0.004-0.004,0.006   c-0.182,0.164-0.201,0.441-0.041,0.626c0.001,0.002,0.004,0.002,0.006,0.004c0.162,0.179,0.435,0.2,0.621,0.044   c0.002-0.002,0.004-0.002,0.006-0.004h0c0.186-0.161,0.205-0.439,0.049-0.626C4.507,25.731,4.507,25.729,4.505,25.727z"></path>
	<circle fill="#FFFFFF" cx="6.343" cy="26.176" r="0.448"></circle>
	<path fill="#FFFFFF" d="M6.837,23.705c-0.162-0.187-0.445-0.208-0.632-0.045c0,0,0,0,0,0c-0.002,0.002-0.002,0.004-0.004,0.006   c-0.182,0.164-0.201,0.441-0.041,0.626c0.002,0.002,0.004,0.003,0.006,0.004c0.161,0.18,0.435,0.2,0.62,0.044   c0.002-0.002,0.004-0.002,0.006-0.004c0.186-0.16,0.206-0.438,0.049-0.625C6.839,23.709,6.839,23.707,6.837,23.705z"></path>
	<circle fill="#FFFFFF" cx="8.675" cy="24.154" r="0.448"></circle>
	<path fill="#FFFFFF" d="M9.169,21.683L9.169,21.683c-0.162-0.188-0.445-0.208-0.632-0.045c0,0,0,0,0,0v0   c-0.002,0.001-0.002,0.004-0.004,0.006c-0.136,0.122-0.181,0.307-0.128,0.471c0.018,0.055,0.047,0.108,0.087,0.155c0,0,0,0,0,0   c0.001,0.002,0.004,0.002,0.005,0.004c0.04,0.044,0.085,0.08,0.135,0.104c0.155,0.076,0.345,0.057,0.485-0.06   c0.002-0.002,0.005-0.002,0.007-0.004c0,0,0,0,0,0c0.185-0.161,0.205-0.439,0.048-0.626C9.171,21.687,9.171,21.685,9.169,21.683z"></path>
	<path fill="#FFFFFF" d="M10.559,23.97c-0.002,0.002-0.002,0.004-0.004,0.006c-0.182,0.164-0.202,0.441-0.041,0.626c0,0,0,0,0,0   l0.333-0.289l0.005-0.005l0.338-0.293c0,0,0,0,0,0C11.029,23.828,10.746,23.807,10.559,23.97z"></path>
	<circle fill="#FFFFFF" cx="11.008" cy="22.131" r="0.448"></circle>
	<path fill="#FFFFFF" d="M11.501,19.661c-0.163-0.188-0.445-0.208-0.632-0.045c0,0,0,0,0,0c-0.002,0.001-0.003,0.004-0.005,0.006   c-0.136,0.122-0.182,0.308-0.128,0.471c0.018,0.055,0.047,0.108,0.087,0.154c0,0,0,0,0,0c0.001,0.002,0.004,0.002,0.006,0.004   c0.162,0.18,0.435,0.2,0.62,0.044c0.002-0.002,0.005-0.002,0.007-0.004h0c0.186-0.16,0.205-0.438,0.048-0.625   C11.503,19.665,11.503,19.663,11.501,19.661z"></path>
	<circle fill="#FFFFFF" cx="13.34" cy="20.11" r="0.448"></circle>
	<path fill="#FFFFFF" d="M13.834,17.639C13.834,17.638,13.834,17.638,13.834,17.639c-0.163-0.188-0.446-0.208-0.633-0.045l0,0   c-0.002,0.002-0.002,0.004-0.004,0.006c-0.136,0.122-0.182,0.308-0.128,0.472c0.018,0.055,0.047,0.108,0.088,0.155   c0.001,0.002,0.004,0.002,0.005,0.004c0.161,0.179,0.435,0.199,0.621,0.044c0.002-0.001,0.004-0.002,0.006-0.003   c0.186-0.161,0.205-0.439,0.049-0.626C13.836,17.643,13.836,17.641,13.834,17.639z"></path>
	<circle fill="#FFFFFF" cx="15.672" cy="18.087" r="0.448"></circle>
	<path fill="#FFFFFF" d="M16.166,15.616c-0.162-0.187-0.445-0.207-0.632-0.045l0,0h0c-0.002,0.002-0.003,0.004-0.005,0.006   c-0.135,0.122-0.181,0.308-0.127,0.471c0.018,0.055,0.047,0.107,0.087,0.154c0,0,0,0,0,0c0.001,0.002,0.004,0.002,0.006,0.004   c0.04,0.044,0.085,0.08,0.135,0.104c0.155,0.076,0.345,0.057,0.485-0.06c0.002-0.002,0.005-0.002,0.007-0.004h0   c0.186-0.161,0.205-0.438,0.048-0.626C16.168,15.621,16.168,15.618,16.166,15.616z"></path>
	<circle fill="#FFFFFF" cx="18.005" cy="16.065" r="0.448"></circle>
	<path fill="#FFFFFF" d="M18.498,13.595l-0.338,0.293v0L18.498,13.595c-0.162-0.188-0.445-0.208-0.632-0.045v0   c-0.001,0.001-0.002,0.004-0.004,0.006c-0.182,0.163-0.2,0.441-0.041,0.626c0.001,0.002,0.004,0.002,0.006,0.004   c0.162,0.179,0.435,0.199,0.62,0.044c0.002-0.001,0.004-0.002,0.006-0.003c0,0,0,0,0,0c0.186-0.162,0.205-0.439,0.048-0.626   C18.5,13.599,18.5,13.597,18.498,13.595z"></path>
	<circle fill="#FFFFFF" cx="4.321" cy="23.843" r="0.448"></circle>
	<path fill="#FFFFFF" d="M4.814,21.373L4.814,21.373c-0.162-0.187-0.444-0.208-0.632-0.045h0c0,0,0,0,0,0   c-0.002,0.001-0.002,0.004-0.004,0.006c-0.136,0.122-0.181,0.308-0.128,0.472c0.018,0.055,0.047,0.108,0.087,0.155c0,0,0,0,0,0   c0.001,0.002,0.004,0.002,0.006,0.004c0.162,0.179,0.435,0.199,0.62,0.044c0.002-0.002,0.005-0.002,0.007-0.004   c0.185-0.162,0.205-0.439,0.048-0.626C4.817,21.377,4.816,21.375,4.814,21.373z"></path>
	<circle fill="#FFFFFF" cx="6.653" cy="21.821" r="0.448"></circle>
	<path fill="#FFFFFF" d="M7.147,19.351c-0.162-0.188-0.444-0.207-0.631-0.045h0l0,0c0,0,0,0,0,0   c-0.002,0.001-0.002,0.004-0.004,0.005c-0.182,0.162-0.201,0.441-0.041,0.625c0,0,0,0,0,0h0c0.002,0.002,0.004,0.003,0.006,0.004   c0.161,0.18,0.435,0.2,0.62,0.044c0.002-0.002,0.005-0.002,0.007-0.004h0c0.186-0.16,0.205-0.439,0.048-0.625   C7.149,19.355,7.148,19.353,7.147,19.351z"></path>
	<circle fill="#FFFFFF" cx="8.986" cy="19.799" r="0.448"></circle>
	<path fill="#FFFFFF" d="M9.479,17.328c-0.162-0.187-0.445-0.208-0.632-0.045c-0.002,0.002-0.003,0.004-0.005,0.006   c-0.182,0.163-0.201,0.44-0.041,0.626c0,0,0,0,0,0c0.001,0.002,0.004,0.002,0.005,0.004c0.161,0.179,0.435,0.199,0.62,0.044   c0.002-0.002,0.005-0.002,0.007-0.004l0,0c0.186-0.161,0.205-0.439,0.048-0.626C9.481,17.333,9.481,17.33,9.479,17.328z"></path>
	<circle fill="#FFFFFF" cx="11.318" cy="17.777" r="0.448"></circle>
	<path fill="#FFFFFF" d="M11.812,15.306c-0.041-0.047-0.089-0.083-0.141-0.109c-0.157-0.077-0.351-0.058-0.491,0.063c0,0,0,0,0,0v0   c-0.002,0.001-0.002,0.004-0.004,0.005c-0.182,0.163-0.201,0.442-0.041,0.627c0.001,0.002,0.004,0.002,0.006,0.004   c0.162,0.18,0.435,0.2,0.62,0.044c0.002-0.001,0.004-0.002,0.006-0.004h0c0.185-0.16,0.205-0.439,0.048-0.626   C11.813,15.311,11.813,15.308,11.812,15.306z"></path>
	<circle fill="#FFFFFF" cx="13.65" cy="15.755" r="0.448"></circle>
	<path fill="#FFFFFF" d="M14.144,13.285C14.144,13.284,14.144,13.284,14.144,13.285c-0.162-0.188-0.445-0.208-0.632-0.045   c-0.002,0.002-0.003,0.004-0.005,0.006c-0.182,0.164-0.201,0.441-0.04,0.626c0.002,0.002,0.004,0.002,0.006,0.004   c0.161,0.18,0.434,0.2,0.62,0.044c0.002-0.002,0.005-0.002,0.007-0.004v0c0,0,0,0,0,0c0.185-0.16,0.205-0.438,0.048-0.625   C14.146,13.289,14.146,13.287,14.144,13.285z"></path>
	<circle fill="#FFFFFF" cx="15.983" cy="13.733" r="0.448"></circle>
	<circle fill="#FFFFFF" cx="6.964" cy="17.467" r="0.448"></circle>
	<path fill="#FFFFFF" d="M7.458,14.996C7.458,14.996,7.458,14.996,7.458,14.996c-0.163-0.188-0.446-0.208-0.633-0.045c0,0,0,0,0,0h0   c-0.002,0.002-0.003,0.004-0.005,0.006c-0.136,0.122-0.181,0.307-0.128,0.471c0.018,0.055,0.047,0.108,0.087,0.155   c0.002,0.002,0.004,0.002,0.006,0.004c0.04,0.044,0.085,0.08,0.135,0.104c0.155,0.076,0.345,0.057,0.485-0.06   c0.002-0.001,0.004-0.002,0.006-0.003h0c0.186-0.161,0.205-0.439,0.049-0.626C7.46,15,7.459,14.998,7.458,14.996z"></path>
	<circle fill="#FFFFFF" cx="9.296" cy="15.445" r="0.448"></circle>
	<path fill="#FFFFFF" d="M9.79,12.975l-0.337,0.293l0,0v0L9.79,12.975c-0.162-0.188-0.445-0.208-0.632-0.046c0,0,0,0,0,0l0,0   c-0.002,0.001-0.002,0.004-0.004,0.006c-0.136,0.122-0.182,0.307-0.128,0.471c0.018,0.055,0.047,0.108,0.088,0.155   c0.001,0.002,0.004,0.002,0.006,0.004c0.161,0.18,0.435,0.2,0.62,0.044c0.001-0.001,0.004-0.002,0.006-0.003v0   c0,0,0-0.001,0.001-0.001c0.185-0.16,0.204-0.438,0.048-0.625C9.792,12.979,9.792,12.977,9.79,12.975z"></path>
	<circle fill="#FFFFFF" cx="11.628" cy="13.423" r="0.448"></circle>
	<path fill="#FFFFFF" d="M12.122,10.952L12.122,10.952c-0.162-0.188-0.445-0.208-0.632-0.045c0,0,0,0,0,0   c-0.002,0.001-0.002,0.004-0.004,0.006c-0.044,0.04-0.08,0.085-0.104,0.135c-0.077,0.157-0.058,0.351,0.063,0.491l0.333-0.289   l0.006-0.005v0l-0.339,0.293c0.002,0.002,0.004,0.003,0.006,0.004c0.161,0.18,0.435,0.199,0.62,0.044   c0.002-0.001,0.004-0.002,0.006-0.003h0c0.185-0.161,0.205-0.439,0.049-0.626C12.125,10.957,12.124,10.954,12.122,10.952z"></path>
	<circle fill="#FFFFFF" cx="13.96" cy="11.401" r="0.448"></circle>
	<circle fill="#FFFFFF" cx="7.274" cy="13.113" r="0.448"></circle>
	<path fill="#FFFFFF" d="M7.768,10.642L7.768,10.642C7.768,10.642,7.768,10.642,7.768,10.642c-0.162-0.188-0.444-0.208-0.632-0.045   c-0.002,0.002-0.002,0.004-0.004,0.006c-0.182,0.164-0.201,0.441-0.041,0.627c0.002,0.002,0.004,0.003,0.006,0.004   c0.162,0.179,0.435,0.199,0.621,0.044c0.002-0.001,0.004-0.001,0.006-0.003c0,0,0,0,0,0c0.186-0.161,0.206-0.439,0.049-0.626   C7.77,10.646,7.77,10.644,7.768,10.642z"></path>
	<circle fill="#FFFFFF" cx="9.606" cy="11.09" r="0.448"></circle>
	<path fill="#FFFFFF" d="M156.684,78.332c-0.002-0.001-0.003-0.003-0.005-0.004c-0.001,0-0.001,0-0.001,0c0,0,0,0,0,0   c-0.166-0.083-0.359-0.053-0.492,0.061c-0.044,0.038-0.081,0.085-0.109,0.14v0c-0.001,0.002-0.001,0.004-0.002,0.006   c-0.104,0.22-0.016,0.484,0.203,0.595c0,0,0,0,0.001,0c0.002,0.001,0.005,0.001,0.007,0.002c0.219,0.104,0.478,0.017,0.589-0.198   c0.001-0.002,0.004-0.003,0.005-0.006c0,0,0,0,0,0C156.988,78.708,156.899,78.443,156.684,78.332z"></path>
	<path fill="#FFFFFF" d="M158.063,75.568c-0.003-0.001-0.004-0.003-0.006-0.004c0,0,0,0-0.001,0v0   c-0.166-0.083-0.359-0.053-0.491,0.06c-0.045,0.038-0.082,0.085-0.109,0.141v0l-0.001,0c-0.001,0.002-0.001,0.005-0.002,0.008   c-0.025,0.053-0.041,0.109-0.044,0.165c-0.012,0.174,0.081,0.346,0.247,0.43v-0.001c0.003,0.001,0.005,0.001,0.008,0.002   c0.165,0.079,0.354,0.05,0.484-0.062c0.042-0.037,0.077-0.083,0.104-0.135c0.002-0.002,0.004-0.003,0.005-0.006v0   C158.366,75.945,158.277,75.68,158.063,75.568z"></path>
	<path fill="#FFFFFF" d="M159.44,72.806c-0.003-0.001-0.004-0.003-0.006-0.004c0,0,0,0-0.001,0c-0.223-0.109-0.49-0.02-0.601,0.202   c0,0,0,0,0,0c-0.001,0.002-0.001,0.004-0.002,0.006c-0.106,0.22-0.018,0.484,0.202,0.594c0.003,0.001,0.005,0.001,0.008,0.002   c0.218,0.103,0.478,0.017,0.59-0.197c0.001-0.002,0.004-0.003,0.005-0.005c0,0,0,0,0,0   C159.745,73.184,159.656,72.918,159.44,72.806z"></path>
	<path fill="#FFFFFF" d="M160.817,70.044c-0.002-0.001-0.004-0.004-0.006-0.005l-0.001,0.001c-0.222-0.11-0.489-0.021-0.6,0.2   c0,0,0,0.001,0,0.001c0,0,0,0,0,0c-0.002,0.002-0.001,0.005-0.002,0.007c-0.104,0.22-0.017,0.483,0.202,0.593l0.001-0.001   c0,0,0,0,0,0c0.002,0.001,0.005,0.001,0.007,0.002c0.164,0.079,0.353,0.05,0.484-0.062c0.042-0.037,0.077-0.083,0.104-0.135   c0.001-0.002,0.004-0.003,0.005-0.006C161.123,70.42,161.034,70.157,160.817,70.044z"></path>
	<path fill="#FFFFFF" d="M149.978,85.843c0.002-0.002,0.004-0.003,0.005-0.006c0.001,0,0.001,0,0.001,0   c0.083-0.167,0.053-0.359-0.062-0.492c-0.036-0.042-0.082-0.078-0.135-0.105c-0.002-0.001-0.003-0.003-0.005-0.004c0,0,0,0-0.001,0   c-0.221-0.109-0.49-0.02-0.6,0.201c0,0,0,0,0,0.001l-0.001,0c-0.001,0.002-0.001,0.005-0.002,0.007   c-0.104,0.22-0.017,0.484,0.203,0.593c0,0,0,0,0,0c0.002,0.001,0.005,0.001,0.007,0.002   C149.605,86.144,149.864,86.058,149.978,85.843z"></path>
	<circle fill="#FFFFFF" cx="150.273" cy="87.707" r="0.448"></circle>
	<path fill="#FFFFFF" d="M151.356,83.08c0.001-0.002,0.004-0.003,0.005-0.006c0.11-0.22,0.021-0.484-0.195-0.597   c-0.003-0.001-0.004-0.003-0.006-0.004c0,0-0.001,0-0.001,0c-0.222-0.11-0.489-0.021-0.601,0.201   c-0.001,0.002-0.001,0.005-0.002,0.007c-0.104,0.22-0.017,0.484,0.202,0.594l0.001,0c0.002,0.001,0.005,0.001,0.007,0.002   C150.983,83.381,151.244,83.295,151.356,83.08z"></path>
	<circle fill="#FFFFFF" cx="151.651" cy="84.945" r="0.448"></circle>
	<path fill="#FFFFFF" d="M152.733,80.318c0.001-0.002,0.004-0.004,0.005-0.006c0.084-0.167,0.055-0.359-0.06-0.492   c-0.036-0.042-0.082-0.078-0.135-0.104c-0.002-0.001-0.003-0.003-0.006-0.005c-0.222-0.11-0.49-0.021-0.601,0.201c0,0,0,0,0,0   h-0.001c-0.001,0.002-0.001,0.004-0.002,0.007c-0.104,0.22-0.017,0.483,0.203,0.594c0.001,0,0.001,0,0.001,0   c0.002,0.001,0.004,0,0.006,0.001C152.362,80.619,152.622,80.533,152.733,80.318z"></path>
	<circle fill="#FFFFFF" cx="153.03" cy="82.182" r="0.448"></circle>
	<path fill="#FFFFFF" d="M154.117,77.55C154.117,77.55,154.117,77.55,154.117,77.55L154.117,77.55   c0.108-0.221,0.021-0.485-0.195-0.597c-0.002-0.001-0.004-0.003-0.006-0.004c-0.223-0.111-0.491-0.022-0.602,0.2   c-0.001,0.002-0.001,0.005-0.002,0.007c-0.104,0.221-0.017,0.485,0.202,0.595c0,0,0,0,0.001,0c0.002,0.001,0.005,0.001,0.008,0.002   c0.053,0.025,0.108,0.041,0.164,0.044c0.172,0.011,0.341-0.08,0.426-0.242C154.114,77.554,154.116,77.552,154.117,77.55z"></path>
	<circle fill="#FFFFFF" cx="154.408" cy="79.42" r="0.448"></circle>
	<path fill="#FFFFFF" d="M155.49,74.794c0.001-0.002,0.003-0.003,0.004-0.006c0,0,0,0,0-0.001c0.109-0.22,0.021-0.483-0.193-0.596   c-0.003-0.001-0.004-0.004-0.007-0.005c-0.167-0.083-0.359-0.052-0.492,0.061c-0.044,0.038-0.082,0.085-0.109,0.14   c-0.001,0.002-0.001,0.005-0.002,0.007c-0.105,0.221-0.017,0.485,0.202,0.595c0,0,0.001,0,0.001,0c0.003,0.001,0.005,0,0.008,0.002   C155.12,75.094,155.379,75.008,155.49,74.794z"></path>
	<circle fill="#FFFFFF" cx="155.785" cy="76.658" r="0.448"></circle>
	<circle fill="#FFFFFF" cx="157.163" cy="73.895" r="0.448"></circle>
	<circle fill="#FFFFFF" cx="158.542" cy="71.133" r="0.448"></circle>
	<circle fill="#FFFFFF" cx="159.919" cy="68.371" r="0.448"></circle>
	<circle fill="#FFFFFF" cx="148.89" cy="83.566" r="0.448"></circle>
	<circle fill="#FFFFFF" cx="150.268" cy="80.804" r="0.449"></circle>
	<path fill="#FFFFFF" d="M150.761,76.375c0.217,0.104,0.478,0.018,0.59-0.196c0.001-0.002,0.004-0.004,0.005-0.006v0   c0.109-0.22,0.021-0.484-0.196-0.597c-0.002-0.001-0.004-0.003-0.006-0.005c-0.166-0.083-0.358-0.053-0.491,0.061   c-0.044,0.038-0.082,0.085-0.11,0.14c0,0,0,0,0,0c-0.001,0.002-0.001,0.005-0.002,0.007c-0.104,0.221-0.016,0.484,0.204,0.594   C150.756,76.374,150.758,76.374,150.761,76.375z"></path>
	<path fill="#FFFFFF" d="M149.775,78.333c-0.222-0.11-0.489-0.021-0.601,0.2v0c-0.001,0.002-0.001,0.005-0.002,0.007   c-0.105,0.22-0.017,0.484,0.202,0.594c0.003,0.001,0.005,0.001,0.008,0.002c0.217,0.104,0.479,0.017,0.59-0.197   c0.002-0.002,0.004-0.003,0.005-0.006c0,0,0,0,0,0c0.108-0.22,0.021-0.485-0.196-0.596   C149.779,78.336,149.777,78.334,149.775,78.333z"></path>
	<circle fill="#FFFFFF" cx="151.646" cy="78.042" r="0.448"></circle>
	<circle fill="#FFFFFF" cx="153.022" cy="75.28" r="0.448"></circle>
	<circle fill="#FFFFFF" cx="154.401" cy="72.517" r="0.448"></circle>
	<path fill="#FFFFFF" d="M157.648,69.464C157.648,69.464,157.649,69.464,157.648,69.464c0.004,0.001,0.007,0.001,0.009,0.002   c0.219,0.104,0.478,0.018,0.589-0.197c0.001-0.002,0.004-0.003,0.005-0.006l-0.001,0c0.083-0.167,0.053-0.359-0.061-0.492   c-0.036-0.042-0.082-0.078-0.134-0.105c-0.002-0.001-0.003-0.003-0.006-0.005c-0.166-0.083-0.359-0.053-0.492,0.061   c-0.044,0.038-0.081,0.085-0.108,0.141c0,0,0,0,0,0c-0.001,0.002-0.001,0.004-0.002,0.006   C157.34,69.09,157.43,69.354,157.648,69.464z"></path>
	<path fill="#FFFFFF" d="M156.071,71.625C156.071,71.625,156.071,71.625,156.071,71.625L156.071,71.625   c-0.002,0.003-0.002,0.005-0.003,0.008c-0.104,0.22-0.016,0.485,0.202,0.594h0.001c0.002,0.001,0.005,0.001,0.007,0.002   c0.22,0.104,0.479,0.018,0.589-0.197c0.002-0.002,0.004-0.004,0.005-0.006c0,0,0,0,0,0c0.109-0.22,0.021-0.485-0.194-0.597   c-0.002-0.001-0.003-0.003-0.005-0.004c0,0-0.001,0-0.001,0C156.449,71.314,156.181,71.403,156.071,71.625z"></path>
	<circle fill="#FFFFFF" cx="155.779" cy="69.755" r="0.448"></circle>
	<path fill="#FFFFFF" d="M148.588,74.8c0.001-0.002,0.003-0.004,0.005-0.006v0c0.109-0.219,0.021-0.484-0.195-0.597   c-0.002-0.001-0.004-0.003-0.006-0.004c-0.222-0.111-0.491-0.021-0.601,0.201c0,0,0,0,0,0.001   c-0.002,0.002-0.001,0.005-0.002,0.007c-0.105,0.22-0.017,0.484,0.202,0.594c0.003,0.001,0.005,0.001,0.008,0.002   c0.164,0.078,0.354,0.049,0.484-0.063C148.525,74.898,148.561,74.852,148.588,74.8z"></path>
	<circle fill="#FFFFFF" cx="148.883" cy="76.664" r="0.449"></circle>
	<path fill="#FFFFFF" d="M152.132,73.611c0.002,0.001,0.004,0.001,0.006,0.002c0.218,0.104,0.479,0.017,0.59-0.197   c0.001-0.002,0.004-0.003,0.005-0.006v0c0.11-0.22,0.022-0.484-0.195-0.597c-0.002-0.001-0.003-0.003-0.005-0.004   c-0.001,0-0.001,0-0.001,0c-0.221-0.11-0.49-0.021-0.601,0.201v0l-0.001,0c-0.001,0.002-0.001,0.005-0.002,0.008   C151.823,73.237,151.913,73.501,152.132,73.611C152.131,73.611,152.131,73.611,152.132,73.611z"></path>
	<circle fill="#FFFFFF" cx="150.261" cy="73.902" r="0.448"></circle>
	<circle fill="#FFFFFF" cx="151.639" cy="71.139" r="0.448"></circle>
	<path fill="#FFFFFF" d="M154.888,68.086c0.002,0.001,0.005,0.001,0.007,0.002c0.165,0.078,0.354,0.049,0.484-0.063   c0.042-0.036,0.077-0.082,0.104-0.134c0.001-0.002,0.004-0.003,0.005-0.006c0,0,0,0,0,0c0.027-0.055,0.043-0.113,0.047-0.171   c0.011-0.172-0.081-0.34-0.242-0.424c-0.002-0.001-0.003-0.003-0.006-0.004l0.001,0c-0.001,0-0.001,0-0.001,0   c-0.222-0.11-0.491-0.021-0.601,0.201l-0.001,0v0c-0.001,0.002-0.001,0.005-0.002,0.007   C154.579,67.712,154.668,67.977,154.888,68.086z"></path>
	<path fill="#FFFFFF" d="M153.308,70.248c-0.001,0.002-0.001,0.004-0.002,0.006c-0.105,0.221-0.016,0.484,0.203,0.594   c0,0,0,0,0.001,0c0.002,0.001,0.005,0.001,0.007,0.002c0.218,0.104,0.478,0.018,0.59-0.196c0.001-0.002,0.004-0.004,0.005-0.006   c0,0,0,0,0,0c0.11-0.219,0.021-0.483-0.195-0.597c-0.002-0.001-0.004-0.004-0.007-0.005v0   C153.688,69.936,153.419,70.025,153.308,70.248z"></path>
	<circle fill="#FFFFFF" cx="153.017" cy="68.377" r="0.448"></circle>
	<path fill="#FFFFFF" d="M147.203,70.659c0.002-0.002,0.004-0.003,0.005-0.006c0.108-0.219,0.021-0.484-0.195-0.596   c-0.002-0.001-0.003-0.003-0.005-0.004c0,0,0,0-0.001,0c0,0,0,0,0,0c-0.165-0.083-0.358-0.053-0.491,0.061   c-0.044,0.038-0.082,0.085-0.109,0.141c-0.001,0.002-0.001,0.005-0.002,0.007c-0.106,0.22-0.018,0.484,0.202,0.594c0,0,0,0,0.001,0   c0,0,0,0,0,0c0.002,0.001,0.005,0,0.007,0.001C146.832,70.96,147.092,70.874,147.203,70.659z"></path>
	<circle fill="#FFFFFF" cx="147.499" cy="72.523" r="0.448"></circle>
	<path fill="#FFFFFF" d="M149.168,71.631C149.168,71.631,149.168,71.631,149.168,71.631c-0.001,0.002-0.001,0.005-0.002,0.007   c-0.105,0.22-0.017,0.484,0.203,0.594c0.002,0.001,0.005,0.001,0.008,0.002c0.217,0.105,0.477,0.019,0.589-0.196   c0.001-0.002,0.004-0.003,0.005-0.006c0.11-0.221,0.021-0.485-0.195-0.598c-0.002-0.001-0.004-0.003-0.006-0.004c0,0,0,0-0.001,0   C149.547,71.32,149.279,71.409,149.168,71.631z"></path>
	<circle fill="#FFFFFF" cx="148.877" cy="69.761" r="0.448"></circle>
	<path fill="#FFFFFF" d="M152.124,66.708C152.124,66.708,152.125,66.708,152.124,66.708c0.004,0.001,0.006,0.001,0.009,0.002   c0.219,0.104,0.479,0.017,0.589-0.197c0.001-0.002,0.004-0.003,0.005-0.006c0.11-0.22,0.022-0.483-0.194-0.597   c-0.003-0.001-0.004-0.003-0.007-0.005c-0.223-0.11-0.49-0.021-0.601,0.201c0,0,0,0,0,0c-0.001,0.002-0.001,0.004-0.002,0.006   C151.816,66.334,151.906,66.598,152.124,66.708z"></path>
	<path fill="#FFFFFF" d="M150.547,68.869L150.547,68.869L150.547,68.869c-0.002,0.002-0.002,0.005-0.003,0.008   c-0.104,0.22-0.016,0.484,0.203,0.594c0.002,0.001,0.005,0.001,0.007,0.002c0.218,0.104,0.478,0.017,0.589-0.197   c0.001-0.002,0.004-0.004,0.005-0.006c0,0,0,0,0,0c0.11-0.219,0.022-0.484-0.194-0.596c-0.002-0.001-0.003-0.003-0.005-0.004   c0,0-0.001,0-0.001,0C150.925,68.558,150.657,68.647,150.547,68.869z"></path>
	<circle fill="#FFFFFF" cx="150.255" cy="66.999" r="0.449"></circle>
	<path fill="#FFFFFF" d="M147.783,67.491C147.783,67.491,147.783,67.491,147.783,67.491c-0.001,0.003-0.001,0.006-0.002,0.008   c-0.025,0.053-0.041,0.108-0.044,0.164c-0.011,0.174,0.081,0.347,0.247,0.43c0,0,0,0,0.001,0v0c0.002,0.001,0.005,0,0.007,0.001   c0.217,0.104,0.477,0.018,0.59-0.196c0.001-0.003,0.004-0.004,0.005-0.007c0.109-0.22,0.021-0.484-0.196-0.598   c-0.002-0.001-0.003-0.003-0.005-0.004v0.001c-0.001,0-0.001,0-0.001,0C148.163,67.18,147.896,67.269,147.783,67.491z"></path>
	<circle fill="#FFFFFF" cx="147.493" cy="65.622" r="0.448"></circle>
	<circle fill="#FFFFFF" cx="87.416" cy="64.395" r="0.472"></circle>
	<path fill="#FFFFFF" d="M91.462,57.708c0.189,0.178,0.487,0.168,0.667-0.021l-0.344-0.323l-0.343-0.322   c-0.044,0.047-0.077,0.101-0.098,0.158C91.279,57.372,91.32,57.573,91.462,57.708L91.462,57.708z"></path>
	<path fill="#FFFFFF" d="M92.129,57.687c0.178-0.19,0.168-0.488-0.021-0.667c0,0,0,0,0,0c-0.19-0.178-0.488-0.169-0.666,0.021   c0,0,0,0.001,0,0.001l0.343,0.322l0,0L92.129,57.687C92.129,57.687,92.129,57.687,92.129,57.687z"></path>
	<path fill="#FFFFFF" d="M87.02,62.445c0.047,0.044,0.102,0.077,0.159,0.098c0.172,0.063,0.374,0.023,0.507-0.12   c0.134-0.143,0.162-0.346,0.087-0.514c-0.025-0.056-0.061-0.107-0.109-0.152c0,0,0,0,0,0c-0.189-0.179-0.488-0.17-0.666,0.021   c0,0,0,0,0,0.001C86.82,61.968,86.829,62.266,87.02,62.445L87.02,62.445z"></path>
	<circle fill="#FFFFFF" cx="87.269" cy="59.805" r="0.471"></circle>
	<circle fill="#FFFFFF" cx="89.489" cy="57.437" r="0.471"></circle>
	<circle fill="#FFFFFF" cx="91.712" cy="55.069" r="0.472"></circle>
	<path fill="#FFFFFF" d="M94.329,54.652c-0.047-0.045-0.102-0.078-0.159-0.099c-0.172-0.064-0.374-0.023-0.507,0.12c0,0,0,0,0,0   c-0.134,0.142-0.162,0.346-0.087,0.514c0.025,0.056,0.062,0.108,0.109,0.153c0.047,0.044,0.102,0.077,0.159,0.098   c0.172,0.063,0.374,0.023,0.508-0.12c0.133-0.143,0.161-0.346,0.086-0.514C94.413,54.749,94.376,54.696,94.329,54.652z"></path>
	<circle fill="#FFFFFF" cx="93.933" cy="52.7" r="0.471"></circle>
	<circle fill="#FFFFFF" cx="96.154" cy="50.332" r="0.471"></circle>
	<path fill="#FFFFFF" d="M86.873,57.854c0.047,0.044,0.102,0.078,0.159,0.099c0.173,0.063,0.374,0.023,0.508-0.119l0,0   c0.178-0.19,0.169-0.488-0.021-0.667c0,0,0,0,0,0c-0.189-0.178-0.487-0.168-0.666,0.022c0,0,0,0,0,0   C86.673,57.378,86.683,57.676,86.873,57.854C86.872,57.854,86.872,57.854,86.873,57.854z"></path>
	<circle fill="#FFFFFF" cx="87.121" cy="55.215" r="0.472"></circle>
	<path fill="#FFFFFF" d="M89.761,55.464c0.178-0.19,0.169-0.488-0.021-0.666c0,0,0,0,0,0l-0.323,0.344L89.761,55.464L89.761,55.464z"></path>
	<path fill="#FFFFFF" d="M89.093,55.486c0.047,0.044,0.102,0.077,0.16,0.098c0.115,0.042,0.243,0.039,0.355-0.011   c0.056-0.025,0.107-0.061,0.152-0.108l-0.344-0.323l0.322-0.344c-0.188-0.178-0.488-0.168-0.667,0.021l0,0   c-0.044,0.048-0.077,0.102-0.098,0.159c-0.042,0.115-0.038,0.243,0.011,0.355C89.01,55.39,89.046,55.441,89.093,55.486   L89.093,55.486z"></path>
	<circle fill="#FFFFFF" cx="89.343" cy="52.847" r="0.472"></circle>
	<path fill="#FFFFFF" d="M91.316,53.117c0.19,0.178,0.488,0.169,0.666-0.021c0,0,0,0,0,0c0.178-0.19,0.169-0.488-0.021-0.666   c0,0,0,0,0,0s0,0,0,0c-0.189-0.178-0.487-0.169-0.666,0.021l0.343,0.322l0,0l0,0L91.316,53.117z"></path>
	<path fill="#FFFFFF" d="M91.637,52.774l-0.343-0.322c-0.134,0.142-0.162,0.345-0.087,0.513c0.024,0.056,0.061,0.108,0.108,0.152   L91.637,52.774z"></path>
	<circle fill="#FFFFFF" cx="91.564" cy="50.478" r="0.472"></circle>
	<path fill="#FFFFFF" d="M93.537,50.749L93.537,50.749c0.19,0.179,0.488,0.168,0.666-0.021c0,0,0,0,0,0   c0.178-0.19,0.169-0.487-0.021-0.666v0c0,0,0,0-0.001,0c-0.189-0.178-0.487-0.168-0.666,0.021c0,0,0,0,0,0   C93.338,50.274,93.347,50.571,93.537,50.749C93.537,50.749,93.536,50.749,93.537,50.749z"></path>
	<path fill="#FFFFFF" d="M86.725,53.265c0.048,0.044,0.102,0.077,0.159,0.099c0.172,0.063,0.373,0.022,0.507-0.119l0,0c0,0,0,0,0,0   c0.178-0.19,0.168-0.489-0.021-0.667c0,0,0,0,0,0c-0.19-0.179-0.488-0.169-0.667,0.021l0,0l0,0.001   c-0.044,0.047-0.077,0.101-0.098,0.158C86.542,52.929,86.583,53.13,86.725,53.265L86.725,53.265z"></path>
	<circle fill="#FFFFFF" cx="86.974" cy="50.625" r="0.471"></circle>
	<path fill="#FFFFFF" d="M88.946,50.896c0.189,0.178,0.487,0.169,0.667-0.021l0,0c0.178-0.189,0.168-0.488-0.021-0.666c0,0,0,0,0,0   c0,0,0,0,0,0c-0.19-0.178-0.488-0.169-0.666,0.021c0,0,0,0,0,0l0.343,0.322l0,0l-0.343-0.322c-0.044,0.047-0.078,0.101-0.099,0.158   c-0.043,0.115-0.039,0.243,0.011,0.355C88.863,50.799,88.899,50.852,88.946,50.896L88.946,50.896z"></path>
	<circle fill="#FFFFFF" cx="89.196" cy="48.257" r="0.472"></circle>
	<path fill="#FFFFFF" d="M86.578,48.674c0.143,0.134,0.346,0.162,0.514,0.087c0.056-0.025,0.107-0.061,0.152-0.108l0,0   c0.178-0.19,0.169-0.488-0.021-0.666c0,0,0,0-0.001,0c-0.19-0.177-0.487-0.168-0.666,0.021L86.9,48.33v0l-0.344-0.322   c-0.044,0.047-0.077,0.102-0.098,0.159c-0.042,0.115-0.038,0.243,0.011,0.355C86.495,48.578,86.531,48.629,86.578,48.674   L86.578,48.674z"></path>
	<path fill="#FFFFFF" d="M89.241,60.076C89.241,60.076,89.241,60.076,89.241,60.076c0.047,0.045,0.102,0.078,0.159,0.099   c0.172,0.063,0.373,0.022,0.507-0.12l0,0c0.178-0.19,0.168-0.488-0.021-0.666c-0.189-0.179-0.489-0.169-0.667,0.021l0,0   c-0.044,0.047-0.077,0.102-0.099,0.159C89.058,59.741,89.1,59.941,89.241,60.076L89.241,60.076z"></path>
	<circle fill="#FFFFFF" cx="89.637" cy="62.027" r="0.472"></circle>
	<circle fill="#FFFFFF" cx="91.858" cy="59.658" r="0.472"></circle>
	<path fill="#FFFFFF" d="M96.659,52.436c-0.025-0.056-0.061-0.107-0.108-0.152c0,0,0,0,0,0c-0.189-0.179-0.489-0.169-0.667,0.021   c0,0,0,0,0,0c-0.133,0.143-0.161,0.346-0.087,0.514c0.025,0.056,0.061,0.108,0.108,0.153c0,0,0,0,0,0   c0.047,0.044,0.102,0.077,0.159,0.098c0.172,0.064,0.373,0.023,0.508-0.12l0,0C96.705,52.807,96.733,52.604,96.659,52.436z"></path>
	<path fill="#FFFFFF" d="M142.5,61.975l0.139-0.16l-2.184-0.567l-2.074-0.54L136.04,60.1l-2.077-0.54l-2.344-0.609l-2.076-0.54   l-0.192-0.05c-2.872-0.815-5.783-1.66-8.719-2.53l0.081-0.106l-10.433-3.047c-2.44-0.765-4.919-1.56-7.419-2.376   c-0.091-0.03-0.184-0.062-0.274-0.091c-1.034-0.338-2.08-0.689-3.121-1.036h0c-0.982-0.327-1.954-0.642-2.942-0.977   c-0.142-0.048-0.285-0.098-0.427-0.146l-0.016-0.015l-0.007,0.007c-0.146-0.049-0.293-0.102-0.438-0.151   c-0.97-0.33-1.949-0.673-2.923-1.01c-1.052-0.364-2.098-0.718-3.153-1.09c-0.07-0.024-0.139-0.047-0.209-0.072c0,0,0,0-0.001,0   c-0.151-0.053-0.303-0.11-0.454-0.163c-0.11-0.039-0.222-0.081-0.333-0.121c0,0,0,0,0,0c-0.844-0.299-1.692-0.611-2.539-0.916   c0,0,0,0,0,0c-0.397-0.143-0.794-0.286-1.191-0.43c-0.279-0.101-0.558-0.2-0.837-0.302c-0.433-0.158-0.864-0.309-1.298-0.469   c-0.182-0.067-0.364-0.129-0.546-0.197l-10.626-4.292l-1.977-0.798l-2.23-0.901l-1.977-0.798l-2.397-0.968l0.016,0.202   c-13.857-5.836-27.179-12.375-38.645-19.55l-0.629-0.468l-0.027-0.021l-1.191-0.887l-0.243-0.181l-0.006-0.004l-0.107-0.08   l-2.421-1.803l-0.006-0.005L18.73,11.86l-0.678-0.505l-0.899-0.669l-0.006-0.004l0,0l-2.529-1.882l-0.006-0.005l-2.178-1.622   l-0.274-0.204l-0.061-0.07l-0.005-0.006l-0.005,0.005l-0.011,0.01l-0.349-0.26L9.547,5.023L9.541,5.019L7.55,3.536L7.494,3.755   C6.07,2.517,4.688,1.269,3.399,0L2.73,0.681c1.415,1.392,2.923,2.762,4.499,4.117L6.994,5.721v0L6.991,5.729l-0.49,1.924   L6.498,7.667L6.066,9.364L6.064,9.373l-0.366,1.436c-0.002,0.029-0.014,0.057-0.021,0.085l-0.42,1.651l-0.089,0.352l-0.003,0.013   l-0.024,0.097l-0.002,0.009l-0.098,0.383l-0.35,1.375L4.547,15.33l-0.335,1.319v0l-0.002,0.008l-0.377,1.481l-0.003,0.012   l-0.544,2.14l-0.002,0.009l-0.784,3.08l-0.003,0.013l-0.009,0.008c0.002,0.002,0.002,0.005,0.004,0.008l-0.133,0.525l-0.002,0.009   l-0.039,0.152l-0.338,1.328l-0.21,0.826L1.43,27.577l-0.002,0.008l-0.264,1.038L1.16,28.636l-0.657,2.583L0.5,31.229L0,33.195   l1.089-0.724l0.31-0.206l0.006-0.004l0.355-0.236l0.818-0.543l0.001,0l0.048-0.032l1.021-0.679l0.342-0.227l0.006-0.004   l0.297-0.197l2.289-1.521l0.006-0.004l2.586-1.718l0.006-0.004v0l1.09-0.724l0.487-0.323l1.009-0.67l0.006-0.004v0l0.92-0.611   l0.732-0.486l0.934-0.621l0.006-0.004l2.586-1.718l0.006-0.004l2.586-1.718l0.006-0.004l2.24-1.488l0.346-0.23l0.006-0.004   l0.371-0.247l0.222-0.147l0.05-0.034l1.46-0.97c0.47,0.292,0.932,0.588,1.408,0.878l-0.679,3.417l-0.523,2.633l-0.591,2.972   l-0.523,2.634l-0.591,2.974l-0.523,2.634l-0.591,2.972l-0.523,2.634l-0.858,4.316l23.844-16.72l1.123,25.988l17.474-17.929   c0.116,0.049,0.23,0.099,0.347,0.148l2.223,28.572l2.129-2.462l1.756-2.031l1.983-2.293l1.756-2.031l7.998-9.248l0.893-1.032   l0.322-0.373l0.911-1.053v0l0.117-0.135l0.017,0.261v0l0.17,2.592l0.142,2.151l0.15,2.285l0.162,2.459l0.13,1.977v0l0.182,2.767v0   l0.11,1.667v0l0.202,3.076v0l0.089,1.358v0l0.222,3.385l0,0.001l0.069,1.049l0.11,1.684l0.016,0.245l0.027,0.413l0.139-0.196   l0.535-0.755l0.68-0.96l0.833-1.176l0.146-0.206l0.916-1.292l1.895-2.675l1.633-2.305l0.262-0.369l0.213-0.302l0,0l0.071-0.076   c-0.003-0.003-0.008-0.004-0.012-0.007l1.447-2.042l0.175-0.247l0,0l0.115-0.163l1.78-2.512l1.895-2.675l0.692-0.977l0.525-0.741   l0.677-0.956l0.62-0.875c0.076,0.025,0.152,0.051,0.229,0.077c0.146,0.049,0.292,0.098,0.438,0.147   c0.188,0.064,0.375,0.128,0.56,0.189l0.126,0.904l0.228,1.62l0.351,2.51l0.366,2.613l0.212,1.517l0.506,3.61l0.072,0.52   l1.713,12.237l15.043-19.714c0.495,0.146,0.985,0.287,1.481,0.433l0.189,4.049l0.128,2.727l0.144,3.074l0.128,2.727l0.144,3.077   l0.128,2.727l0.144,3.074l0.128,2.727l0.157,3.365l19.021-21.849c0.863,0.23,1.716,0.455,2.567,0.679l0.066,0.453l0.107,0.74   l0.192,1.323l0.001,0.008l0.193,1.323l0.002,0.013l0.346,2.376l0.001,0.009l0.431,2.955l0.002,0.014l0.034,0.236l0.073,0.505   l0.002,0.009l0.001,0.008l0.208,1.427l0.127,0.871l0.204,1.405l0.001,0.008l0.02,0.133l0.042,0.289l0.065,0.447l0.002,0.013   l0.412,2.83l0.001,0.008l0.364,2.501l0.002,0.014l0.174,1.196l0.002,0.009l0.193,1.329l0.115,0.789l0.194,1.34l0.037,0.252v0   l0.001,0.009l0.061,0.415l0.002,0.012l0.014,0.09l0.465,3.194l0.001,0.009l0.155,1.065l0.496-0.74l0.006,0.003   c0.001-0.003,0-0.005,0.002-0.008l-0.004-0.002l1.494-2.228l0.235-0.351l0.004-0.006l0.237-0.353l0.002-0.003l0.013-0.019   l0.016-0.024l1.281-1.911l0.181-0.269l0.004-0.006l0.133-0.198l1.597-2.382l0.004-0.006l1.729-2.578l0.005-0.007l0.664-0.992   l0.437-0.649l0.628-0.938l0.004-0.006l0.63-0.939l0.445-0.664l0.654-0.975l0.004-0.006l1.729-2.579l0.004-0.006l1.615-2.41   l0.113-0.169l0.005-0.006l0.173-0.258l1.311-1.955c0.007,0.003,0.011,0.01,0.018,0.014c0,0,0.001,0,0.001,0l0.083-0.166   l0.435-0.649c0.452,0.107,0.911,0.218,1.356,0.323l6.374,25.584l13.571-21.097c8.354,1.777,13.357,2.704,13.492,2.728l0.173-0.938   C199.733,75.188,174.857,70.582,142.5,61.975z M21.514,17.756L21.514,17.756l-0.006,0.004l-1.04,0.69   c0.015-0.121-0.016-0.248-0.103-0.347c-0.162-0.187-0.445-0.207-0.632-0.045c-0.188,0.163-0.208,0.445-0.045,0.632   c0.061,0.07,0.14,0.108,0.222,0.131l-0.989,0.657l-0.006,0.004l-0.922,0.612c-0.166-0.152-0.418-0.165-0.592-0.014   c-0.145,0.125-0.187,0.322-0.125,0.491l-0.946,0.629l-0.006,0.004l-2.586,1.718l-0.006,0.004l-2.577,1.712   c0.177-0.162,0.196-0.433,0.042-0.617c-0.001-0.002-0.002-0.004-0.003-0.007l-0.338,0.294h0l0.005,0.005l0.287,0.331l-0.006,0.004   l-0.286-0.331l-0.332,0.288c0.154,0.171,0.408,0.192,0.592,0.06l-2.201,1.462C8.896,26.1,8.885,26.07,8.863,26.044   c-0.001-0.002-0.002-0.005-0.004-0.007c-0.162-0.188-0.444-0.208-0.632-0.046c0,0,0,0,0,0l0,0   c-0.002,0.002-0.003,0.004-0.005,0.006c-0.135,0.122-0.181,0.308-0.128,0.472c0.017,0.053,0.046,0.102,0.083,0.147l-1.945,1.292   c-0.118-0.012-0.24,0.021-0.337,0.105c0,0,0,0,0,0l0,0c-0.002,0.001-0.003,0.004-0.005,0.006c-0.061,0.055-0.097,0.123-0.121,0.195   l-2.401,1.596h0l-0.006,0.004l-1.825,1.212l0.093-0.366c0.12,0.013,0.245-0.019,0.343-0.104c0.188-0.162,0.208-0.445,0.045-0.632   c-0.048-0.055-0.107-0.091-0.17-0.117l0.342-1.346l0.002-0.008l0.232-0.914l0.003-0.013l0.689-2.708l0.002-0.009l0.64-2.513   l0.003-0.013l0.282-1.107l0.002-0.009l0.335-1.318c0.164,0.113,0.386,0.114,0.544-0.023c0.188-0.163,0.207-0.445,0.045-0.632   c-0.1-0.115-0.245-0.159-0.385-0.144l0.334-1.313c0.056-0.017,0.108-0.045,0.155-0.084c0.002-0.001,0.004-0.002,0.006-0.003   c0,0,0,0,0,0h0c0.185-0.16,0.205-0.438,0.048-0.625c-0.002-0.002-0.002-0.005-0.004-0.007c-0.005-0.006-0.013-0.009-0.019-0.015   l0.792-3.11L5.9,13.884l0.527-2.07l0.003-0.013l0.395-1.551l0.002-0.009l0.339-1.33c0.018,0.05,0.043,0.098,0.08,0.141   C7.408,9.239,7.69,9.259,7.877,9.096c0.188-0.162,0.207-0.444,0.045-0.631S7.477,8.257,7.291,8.419l0.358-1.407   C7.779,7.04,7.917,7.015,8.026,6.923C8.028,6.922,8.03,6.921,8.032,6.92l0,0l1.435,1.654C9.466,8.577,9.465,8.579,9.463,8.581   C9.282,8.744,9.262,9.021,9.423,9.207v0h0c0.001,0.002,0.004,0.002,0.006,0.004c0.161,0.18,0.435,0.2,0.62,0.044   c0.002-0.002,0.004-0.002,0.006-0.004h0c0.186-0.16,0.205-0.438,0.049-0.626c-0.002-0.002-0.002-0.005-0.004-0.007   C9.938,8.432,9.655,8.412,9.468,8.574L8.033,6.92c0.185-0.161,0.205-0.438,0.048-0.626C8.08,6.292,8.08,6.29,8.078,6.288   L7.765,6.559v0l0.313-0.271C8.02,6.221,7.945,6.183,7.866,6.159l0.171-0.67c0.471,0.397,0.957,0.791,1.44,1.184   C9.46,6.797,9.489,6.927,9.578,7.03c0.124,0.144,0.319,0.187,0.488,0.126c0.614,0.493,1.247,0.98,1.881,1.468   c-0.107-0.002-0.215,0.03-0.302,0.106c-0.188,0.162-0.208,0.445-0.045,0.632c0.162,0.188,0.445,0.208,0.632,0.045   c0.135-0.118,0.18-0.297,0.135-0.459c1.092,0.833,2.206,1.659,3.352,2.477c-0.045,0.143-0.024,0.304,0.081,0.425   c0.001,0.002,0.004,0.002,0.006,0.004c0.04,0.044,0.085,0.08,0.135,0.104c0.146,0.071,0.321,0.051,0.458-0.048   c1.93,1.36,3.927,2.7,5.992,4.019c-0.114-0.008-0.231,0.027-0.325,0.108c-0.188,0.162-0.208,0.445-0.045,0.632   c0.162,0.188,0.445,0.208,0.633,0.045c0.169-0.146,0.193-0.389,0.078-0.573c0.207,0.131,0.419,0.26,0.626,0.391L21.514,17.756z    M26.097,20.641l1.692-1.118l1.901,1.032l-4.116,2.72L26.097,20.641z M24.983,26.245l6.852-4.527l1.901,1.032l-9.276,6.129   L24.983,26.245z M23.869,31.853l12.013-7.938l1.901,1.032l-14.438,9.54L23.869,31.853z M22.231,40.092l0.523-2.634L39.929,26.11   l1.901,1.031L22.231,40.092z M46.079,52.168l-1.006-23.272l16.537,7.338L46.079,52.168z M67.29,61.408L65.44,37.633   c0.659,0.272,1.317,0.544,1.978,0.813l1.627,20.932L67.29,61.408z M71.029,57.084l-1.381-17.742   c0.659,0.263,1.317,0.528,1.977,0.788l1.161,14.922L71.029,57.084z M80.191,46.489l-5.424,6.272L73.852,41   c0.658,0.256,1.315,0.513,1.974,0.766l0.697,8.965l1.983-2.293l-0.454-5.827c0.658,0.249,1.316,0.5,1.974,0.745l0.202,2.596   l0.035,0.455L80.191,46.489z M98.844,50.63l-1.895,2.675l-0.84,1.186c-0.056,0.025-0.107,0.061-0.152,0.107   c-0.073,0.078-0.106,0.174-0.117,0.271l-0.786,1.109l-0.675,0.953c-0.191-0.159-0.473-0.148-0.644,0.035   c-0.179,0.19-0.169,0.489,0.022,0.667c0.026,0.024,0.058,0.037,0.087,0.054l-0.685,0.966v0l-1.895,2.674l-1.885,2.661   c-0.004,0.004-0.01,0.006-0.014,0.01h0c-0.021,0.023-0.031,0.051-0.047,0.077l-1.577,2.227c-0.188-0.122-0.438-0.104-0.597,0.065   c-0.178,0.19-0.168,0.488,0.021,0.667c0.012,0.011,0.027,0.015,0.04,0.024l-1.485,2.097c0.022-0.105,0.013-0.213-0.037-0.31   L85.67,68.63l1.497-1.596l-1.497,1.595l-0.104-1.586c0.139-0.186,0.126-0.445-0.041-0.612l-0.105-1.607   c0.014-0.012,0.032-0.018,0.045-0.032c0.178-0.189,0.169-0.488-0.021-0.666c0,0,0,0,0,0c-0.021-0.02-0.048-0.029-0.072-0.044   l-0.099-1.5c0.042-0.023,0.084-0.048,0.119-0.084c0.178-0.189,0.169-0.487-0.021-0.667c-0.046-0.043-0.098-0.073-0.153-0.095   l-0.093-1.416c0.071-0.024,0.139-0.059,0.194-0.118c0.178-0.19,0.168-0.488-0.021-0.666c-0.067-0.063-0.148-0.094-0.231-0.11   l-0.091-1.383c0.1-0.016,0.196-0.057,0.271-0.136c0.178-0.19,0.168-0.488-0.021-0.666c-0.088-0.082-0.199-0.12-0.31-0.123   l-0.089-1.359c0.126,0.001,0.253-0.046,0.347-0.146c0,0,0,0,0,0c0.133-0.142,0.162-0.346,0.087-0.514   c-0.025-0.056-0.061-0.108-0.108-0.152c-0.108-0.102-0.25-0.136-0.387-0.117l-0.091-1.378c0.151,0.027,0.312-0.013,0.424-0.133   c0.179-0.19,0.169-0.488-0.021-0.667c-0.128-0.121-0.305-0.148-0.462-0.099l-0.093-1.409c0.172,0.061,0.371,0.021,0.503-0.12v0   c0.178-0.19,0.169-0.488-0.022-0.667c-0.149-0.141-0.365-0.16-0.538-0.07l-0.098-1.486c0.187,0.113,0.429,0.093,0.583-0.072   c0.178-0.19,0.168-0.489-0.021-0.667c-0.173-0.162-0.432-0.161-0.612-0.018l-0.104-1.588c0.19,0.176,0.485,0.167,0.664-0.022l0,0   c0,0,0,0,0,0c0.178-0.19,0.168-0.488-0.021-0.667c0,0,0,0,0,0l-0.323,0.344l0.322-0.344c-0.189-0.178-0.488-0.169-0.666,0.021   c0,0,0,0,0,0l0,0c-0.008,0.009-0.011,0.021-0.019,0.03l-0.003-0.05v0l-0.029-0.447l0.872,0.281l1.35,0.435   c0,0.126,0.048,0.251,0.147,0.344c0.189,0.179,0.487,0.169,0.666-0.021c0.014-0.015,0.02-0.034,0.031-0.05l1.225,0.395h0   l2.262,0.729l0.001,0l0.952,0.307c-0.17-0.058-0.365-0.019-0.495,0.121h0h0c-0.178,0.19-0.168,0.487,0.022,0.667   c0.19,0.178,0.488,0.168,0.667-0.021v0c0.178-0.19,0.168-0.487-0.021-0.666c-0.046-0.043-0.098-0.074-0.153-0.095l0.186,0.06   l1.506,0.486c0.025,0.06,0.061,0.116,0.111,0.163c0.158,0.148,0.385,0.159,0.561,0.054l1.24,0.399l2.659,0.857l0.291,0.094   c-0.038,0.022-0.077,0.043-0.108,0.078h0c-0.178,0.19-0.168,0.487,0.021,0.666l0,0c0.048,0.044,0.102,0.077,0.16,0.098   c0.172,0.063,0.374,0.023,0.508-0.119c0,0,0,0,0,0c0.131-0.141,0.159-0.341,0.088-0.507l0.289,0.093L98.844,50.63z M105.596,73.963   l-2.659-18.996l-0.08-0.574l-0.422-3.012l7.604,2.22c3.057,0.958,6.06,1.876,8.994,2.752L105.596,73.963z M122.717,62.835   l-0.128-2.728l1.822-2.044l2.077,0.54L122.717,62.835z M122.86,65.908l5.969-6.697l0.246,0.064c0.602,0.171,1.203,0.341,1.801,0.51   l-7.888,8.85L122.86,65.908z M123.132,71.712l10.056-11.282c0.685,0.19,1.371,0.382,2.05,0.569l-11.978,13.44L123.132,71.712z    M123.531,80.24l-0.128-2.727l14.153-15.881c0.688,0.188,1.377,0.375,2.059,0.559L123.531,80.24z M163.107,69.856   c0.05-0.199-0.035-0.413-0.227-0.508c-0.221-0.112-0.49-0.021-0.601,0.2c-0.11,0.223-0.021,0.491,0.201,0.603   c0.152,0.076,0.326,0.051,0.457-0.042l-0.75,1.119l-0.004,0.006l-0.62,0.923c-0.021-0.015-0.036-0.035-0.061-0.047   c-0.222-0.11-0.491-0.021-0.602,0.201c-0.104,0.21-0.025,0.458,0.172,0.578l-0.619,0.923l-0.004,0.006l-0.704,1.05   c-0.092,0.041-0.174,0.107-0.223,0.205c-0.031,0.063-0.043,0.128-0.044,0.193l-0.758,1.131l-0.005,0.007l-1.729,2.578l-0.004,0.006   l-1.516,2.26c-0.041-0.063-0.093-0.118-0.163-0.155c-0.002-0.001-0.004-0.003-0.006-0.005v0c-0.001,0-0.001,0-0.001,0   c-0.222-0.111-0.491-0.021-0.602,0.2c0,0,0,0,0,0c-0.001,0.002-0.001,0.005-0.002,0.008c-0.025,0.053-0.041,0.109-0.044,0.164   c-0.011,0.174,0.082,0.347,0.247,0.43c0,0,0,0,0.001,0v0c0.002,0.001,0.005,0,0.008,0.002c0.035,0.017,0.072,0.022,0.109,0.03   l-0.488,0.729l-0.031,0.046l-0.001,0.001l-0.742,1.106c-0.175-0.013-0.35,0.078-0.435,0.246c0,0-0.001,0-0.001,0   c-0.001,0.002-0.001,0.004-0.002,0.006c-0.061,0.128-0.05,0.269,0.009,0.388l-1.537,2.292l-0.004,0.006l-1.729,2.579l-0.004,0.006   l-0.722,1.076c-0.013-0.088-0.046-0.171-0.107-0.237l-0.196-1.35l-0.001-0.009v0l-0.23-1.581l-0.002-0.014l-0.309-2.116   l-0.001-0.008l-0.464-3.186c0.216,0.092,0.465,0.008,0.573-0.201c0.001-0.002,0.004-0.004,0.005-0.006   c0.083-0.167,0.053-0.359-0.061-0.492c-0.036-0.042-0.081-0.077-0.134-0.104c-0.002-0.001-0.004-0.004-0.006-0.005   c-0.165-0.082-0.355-0.053-0.487,0.058l-0.195-1.34c0.078-0.042,0.148-0.102,0.19-0.187c0.11-0.221,0.021-0.49-0.2-0.6   c-0.035-0.018-0.072-0.021-0.108-0.029l-0.195-1.338l-0.001-0.009l-0.164-1.126l-0.002-0.013l-0.374-2.572l-0.002-0.009v0   l-0.401-2.758l-0.002-0.013v0l-0.137-0.939l-0.001-0.008l-0.202-1.383c0.164-0.001,0.322-0.087,0.399-0.244   c0.11-0.221,0.02-0.49-0.2-0.601c-0.105-0.052-0.221-0.057-0.325-0.026l-0.203-1.395c0.01-0.015,0.023-0.025,0.032-0.042   c0.001-0.002,0.003-0.003,0.004-0.005c0,0,0-0.001,0-0.001c0.083-0.167,0.053-0.359-0.06-0.492   c-0.018-0.02-0.042-0.032-0.063-0.049l-0.022-0.155l-0.002-0.013l-0.253-1.735l0.994,0.25l0.008,0.002l2.703,0.68   c0.022,0.137,0.101,0.263,0.234,0.33c0.002,0.001,0.004,0,0.006,0.001c0.193,0.093,0.415,0.03,0.542-0.134l0.349,0.087l0.036,0.009   l2.252,0.566l0.008,0.002l3.058,0.768v0l0.008,0.001l1.104,0.277c-0.038,0.192,0.048,0.392,0.231,0.484   c0.223,0.111,0.492,0.02,0.602-0.201c0.011-0.022,0.012-0.046,0.019-0.069l1.103,0.277l0.007,0.002l3.058,0.768h0.001l0.007,0.002   l2.127,0.535L163.107,69.856z M173.191,92.177l-5.63-22.604l17.67,3.892L173.191,92.177z"></path>
</g></svg>