<?xml version="1.0" encoding="utf-8"?>
<!-- Generator: Adobe Illustrator 15.0.0, SVG Export Plug-In . SVG Version: 6.00 Build 0)  -->
<!DOCTYPE svg PUBLIC "-//W3C//DTD SVG 1.1//EN" "http://www.w3.org/Graphics/SVG/1.1/DTD/svg11.dtd">
<svg version="1.1" id="Layer_1" xmlns="http://www.w3.org/2000/svg" xmlns:xlink="http://www.w3.org/1999/xlink" x="0px" y="0px"
	 width="200px" height="178px" viewBox="0 0 200 178" enable-background="new 0 0 200 178" xml:space="preserve">
<g id="CFFC30B">
	<path fill="#FFC30B" d="M183.869,116.415H16.126c-2.853,0.008-5.241,2.565-5.248,5.873c0.007,3.301,2.395,5.869,5.248,5.871
		h167.743c2.855-0.002,5.24-2.574,5.248-5.871C189.109,118.991,186.726,116.421,183.869,116.415z M183.869,166.253v-0.008H16.126
		c-2.853,0.008-5.241,2.572-5.248,5.885c0.007,3.298,2.395,5.863,5.248,5.869h167.743c2.855-0.006,5.24-2.58,5.248-5.869
		C189.109,168.825,186.726,166.253,183.869,166.253z M180.132,161.833v-28.838H19.859v28.838H180.132z M164.556,147.134
		c0,0.096-0.024,0.185-0.034,0.277c-0.049,0.748-0.306,1.471-0.742,2.082c-0.813,1.129-2.196,1.889-3.803,1.894h-12.095
		c-1.287-0.005-2.429-0.49-3.255-1.265c-0.819-0.772-1.323-1.836-1.325-2.982c0.006-2.303,2.007-4.246,4.58-4.25h12.095
		c0.795,0.002,1.575,0.201,2.271,0.585C163.627,144.216,164.545,145.585,164.556,147.134L164.556,147.134z M135.048,147.214
		l-1.521,0.826l-1.662,0.896l-1.851,1.004l-2.627,1.416l-4.463-2.433l-3.171-1.727l2.117-1.15l1.062-0.571l1.492-0.808l2.983-1.612
		l4.461,2.428L135.048,147.214z M113.148,147.134c0,0.055-0.016,0.104-0.018,0.158c-0.098,2.233-2.051,4.088-4.564,4.09v0.005
		H93.952c-2.57-0.007-4.575-1.951-4.583-4.253c0.008-2.295,2.015-4.24,4.583-4.244h14.615
		C111.139,142.894,113.141,144.839,113.148,147.134L113.148,147.134z M79.262,147.214l-0.83,0.451l-2.353,1.271l-4.478,2.42
		l-0.404-0.222l-4.062-2.211l-3.181-1.729l3.189-1.721l4.477-2.419l4.461,2.425L79.262,147.214L79.262,147.214z M56.697,147.134
		c0,0.061-0.016,0.111-0.018,0.166c-0.063,1.371-0.818,2.604-1.988,3.347c-0.442,0.272-0.926,0.474-1.432,0.591
		c-0.377,0.094-0.764,0.145-1.153,0.148H40.019c-0.412,0-0.798-0.067-1.173-0.161c-1.98-0.487-3.4-2.157-3.407-4.091
		c0-0.098,0.024-0.189,0.031-0.285c0.114-1.488,1.054-2.784,2.433-3.461c0.658-0.325,1.382-0.496,2.116-0.498l6.045-0.001h6.042
		c0.488,0,0.948,0.088,1.384,0.218C55.364,143.661,56.687,145.273,56.697,147.134L56.697,147.134z"/>
	<path fill="#FFC30B" d="M195.753,22.716c-0.804-0.546-1.706-0.929-2.657-1.125c-4.518-0.846-8.766,2.356-10.832,7.422
		c-0.469,1.133-0.814,2.312-1.031,3.518c-0.713,4.059-0.049,8.116,2.004,10.949c-8.441,14.057-16.906,27.319-25.275,39.892
		c-0.393-6.325-0.576-12.662-0.553-19c2.445-0.847,4.144-3.556,4.633-6.71c0.564-3.936-0.99-7.896-4.565-8.515
		c-3.612-0.341-6.136,3.085-6.614,7.022c-0.344,3.066,0.508,5.998,2.483,7.531c-3.479,12.896-7.662,25.142-12.29,36.839
		c-2.929-16.47-5.125-33.374-6.066-50.751c3.064-1.082,5.14-4.567,5.539-8.597c0.443-4.896-1.857-9.596-6.252-10.073
		c-4.418-0.197-7.392,4.101-7.69,9.007c-0.204,3.907,1.19,7.511,3.853,9.157c-3.721,17.477-8.459,34.091-13.726,50.015
		c-5.541-23.771-10.56-48.495-14.085-74.389c3.915-1.782,6.381-6.557,6.533-12.029C109.285,6.184,105.611,0.157,99.662,0
		c-5.957,0.166-9.627,6.197-9.488,12.894c0.162,5.672,2.831,10.64,7.025,12.206c-3.322,25.489-8.396,50.089-14.16,73.982
		c-5.435-15.954-10.19-32.443-13.773-49.619c2.862-1.534,4.389-5.297,4.176-9.339c-0.304-4.906-3.282-9.204-7.698-9.008
		l-0.175,0.021c-4.446,0.501-6.728,5.19-6.288,10.072c0.388,3.893,2.317,7.242,5.196,8.463c-1.007,17.472-3.109,34.278-5.831,50.508
		c-4.653-11.566-8.762-23.554-12.083-36.064c2.136-1.461,3.07-4.527,2.72-7.701c-0.478-3.934-3.003-7.366-6.609-7.024
		c-3.581,0.623-5.12,4.589-4.559,8.512c0.471,3.046,2.052,5.652,4.351,6.617c0.002,6.225-0.179,12.448-0.543,18.662
		c-8.33-12.52-16.753-25.718-25.152-39.701c2.05-2.833,2.712-6.891,2-10.941c-0.218-1.207-0.561-2.387-1.021-3.523
		c-2.077-5.064-6.327-8.272-10.842-7.421c-0.956,0.192-1.861,0.576-2.665,1.129c-3.831,2.662-4.942,7.971-3.836,13.064
		c0.26,1.17,0.645,2.341,1.17,3.482c2.279,4.961,6.421,8.053,10.669,7.264l0.08-0.019c3.93,10.773,7.056,21.66,9.181,32.602
		c2.102,10.804,3.221,21.651,3.286,32.516l0.005,1.363l150.424,0.004l-0.007-1.379c-0.03-11,1.049-21.833,3.122-32.515
		c2.128-11.023,5.331-21.886,9.339-32.591c0.029,0.006,0.057,0.014,0.086,0.02c4.248,0.789,8.385-2.312,10.67-7.272
		c0.508-1.115,0.895-2.281,1.159-3.477C200.701,30.687,199.591,25.379,195.753,22.716L195.753,22.716z M14.083,42.494l-0.679,0.74
		l0.004,0.003l-0.812,0.372c-0.281,0.132-0.577,0.23-0.881,0.291c-2.293,0.533-5.615-1.409-7.566-5.745
		c-0.431-0.956-0.758-1.953-0.979-2.978c-0.992-4.406,0.305-8.758,2.719-10.293c0.466-0.323,0.993-0.546,1.548-0.66l0.094-0.022
		c2.409-0.491,5.771,1.496,7.57,5.836c0.407,0.974,0.708,1.997,0.897,3.013C16.726,36.861,15.839,40.626,14.083,42.494z
		 M153.48,56.492c0.188-1.525,0.791-2.836,1.516-3.652c0.74-0.832,1.492-1.122,2.127-1.038c0.641,0.086,1.287,0.563,1.787,1.563
		c0.488,0.981,0.729,2.397,0.518,3.92c-0.384,2.88-2.216,4.718-3.359,4.667l-0.375,0.015l-0.326-0.139
		C154.279,61.456,153.113,59.249,153.48,56.492L153.48,56.492z M129.302,40.297c0.125-2.008,0.823-3.764,1.759-4.913
		c0.946-1.172,2.016-1.668,3.008-1.591c0.998,0.075,1.984,0.729,2.744,2.031c0.75,1.278,1.178,3.121,0.997,5.124
		c-0.302,3.775-2.577,6.392-4.343,6.465l-0.529,0.052l-0.541-0.184C130.73,46.782,129.041,43.915,129.302,40.297L129.302,40.297z
		 M93.055,12.839c-0.049-2.927,0.764-5.567,2.047-7.39c1.292-1.83,2.917-2.763,4.547-2.764h0.015
		c1.624-0.008,3.259,0.923,4.556,2.756c1.282,1.821,2.101,4.458,2.06,7.387c-0.054,5.23-2.857,9.3-5.565,9.912l-0.857,0.227
		l-0.868-0.146C96.158,22.458,93.114,18.315,93.055,12.839z M62.001,40.963c-0.177-2.004,0.244-3.846,0.99-5.124
		c0.758-1.304,1.746-1.956,2.742-2.033l0.037,0.001l0.248-0.023c0.918-0.069,1.992,0.425,2.946,1.598
		c0.933,1.15,1.627,2.906,1.754,4.914c0.272,3.777-1.586,6.708-3.316,7.049l-0.636,0.164l-0.651-0.117
		C64.399,47.153,62.289,44.579,62.001,40.963z M40.726,57.526c-0.211-1.518,0.021-2.938,0.507-3.918
		c0.495-0.986,1.138-1.471,1.777-1.555l0.015-0.002c0.631-0.09,1.388,0.208,2.127,1.035c0.721,0.82,1.323,2.128,1.513,3.649
		c0.378,2.881-0.904,5.134-2.037,5.395l-0.332,0.107l-0.368-0.048C42.791,62.112,41.085,60.274,40.726,57.526z M196.83,35.176
		c-0.219,1.01-0.539,2.012-0.973,2.979c-1.951,4.332-5.279,6.277-7.568,5.744c-0.299-0.058-0.592-0.155-0.866-0.288l-0.825-0.378
		l-0.674-0.739c-1.756-1.871-2.646-5.64-1.921-9.452c0.188-1.008,0.489-2.016,0.901-2.996c1.824-4.41,5.246-6.385,7.664-5.83
		c0.522,0.114,1.03,0.324,1.549,0.668C196.52,26.404,197.824,30.762,196.83,35.176L196.83,35.176z"/>
</g>
</svg>
