<?xml version="1.0" encoding="utf-8"?>
<!-- Generator: Adobe Illustrator 15.0.0, SVG Export Plug-In . SVG Version: 6.00 Build 0)  -->
<!DOCTYPE svg PUBLIC "-//W3C//DTD SVG 1.1//EN" "http://www.w3.org/Graphics/SVG/1.1/DTD/svg11.dtd">
<svg version="1.1" id="Layer_1" xmlns="http://www.w3.org/2000/svg" xmlns:xlink="http://www.w3.org/1999/xlink" x="0px" y="0px"
	 width="200px" height="100px" viewBox="0 0 200 100" enable-background="new 0 0 200 100" xml:space="preserve">
<g id="C42C4E6">
	<polygon fill="#42C4E6" points="177.404,54.54 176.069,55.341 178.592,60.755 181.039,59.582 	"/>
	<polygon fill="#42C4E6" points="199.2,40.711 199.999,38.999 199.999,35.039 196.754,39.537 	"/>
	<polygon fill="#42C4E6" points="121.347,77.875 122.482,78.939 127,75.034 125.202,73 	"/>
	<polygon fill="#42C4E6" points="108.983,94.436 110.657,96.573 115.318,92.84 114.478,91.53 	"/>
	<polygon fill="#42C4E6" points="113.762,6.289 111.315,5.115 108.793,10.528 110.128,11.329 	"/>
	<polygon fill="#42C4E6" points="46.789,54.215 45.454,55.015 47.977,60.43 50.424,59.257 	"/>
	<polygon fill="#42C4E6" points="68.586,40.387 71.108,34.973 69.774,34.173 66.139,39.212 	"/>
	<polygon fill="#42C4E6" points="110.773,40.004 113.296,34.59 111.961,33.791 108.326,38.83 	"/>
	<polygon fill="#42C4E6" points="163.44,33.369 165.364,39.024 166.881,38.678 166.021,32.525 	"/>
	<polygon fill="#42C4E6" points="149.669,45.181 144.975,48.875 145.805,50.19 151.322,47.334 	"/>
	<polygon fill="#42C4E6" points="13.28,80.49 15.188,82.421 18.766,77.339 17.573,76.339 	"/>
</g>
<g id="C7ECAB0">
	<circle fill="#7ECAB0" cx="184.73" cy="38.188" r="0.966"/>
	<circle fill="#7ECAB0" cx="162.267" cy="98.833" r="0.966"/>
	<circle fill="#7ECAB0" cx="162.168" cy="17.993" r="0.966"/>
	<circle fill="#7ECAB0" cx="124.175" cy="3.49" r="0.966"/>
	<circle fill="#7ECAB0" cx="148.149" cy="63.462" r="0.966"/>
	<circle fill="#7ECAB0" cx="144.164" cy="18.098" r="0.965"/>
	<circle fill="#7ECAB0" cx="93.773" cy="74.78" r="0.965"/>
	<circle fill="#7ECAB0" cx="97.757" cy="32.446" r="0.965"/>
	<circle fill="#7ECAB0" cx="54.116" cy="37.863" r="0.965"/>
	<circle fill="#7ECAB0" cx="31.651" cy="98.507" r="0.965"/>
	<circle fill="#7ECAB0" cx="83.007" cy="92.85" r="0.965"/>
	<circle fill="#7ECAB0" cx="31.553" cy="17.667" r="0.965"/>
	<circle fill="#7ECAB0" cx="82.908" cy="13.524" r="0.965"/>
	<circle fill="#7ECAB0" cx="17.534" cy="63.136" r="0.965"/>
	<circle fill="#7ECAB0" cx="13.549" cy="17.774" r="0.965"/>
	<circle fill="#7ECAB0" cx="121.346" cy="47.684" r="0.965"/>
	<circle fill="#7ECAB0" cx="156.376" cy="39.617" r="0.965"/>
	<circle fill="#7ECAB0" cx="110.811" cy="19.632" r="0.965"/>
</g>
<g id="CF9A75D">
	<polygon fill="#F9A75D" points="162.589,62.745 163.926,63.54 167.537,58.481 165.084,57.319 	"/>
	<polygon fill="#F9A75D" points="132.309,91.826 134.806,97.25 137.259,96.089 133.647,91.03 	"/>
	<polygon fill="#F9A75D" points="96.792,5.906 95.453,5.112 91.842,10.169 94.296,11.332 	"/>
	<polygon fill="#F9A75D" points="32.787,53.933 34.126,53.138 31.629,47.713 29.176,48.874 	"/>
	<polygon fill="#F9A75D" points="81.498,35.446 82.836,36.241 86.446,31.183 83.994,30.021 	"/>
	<polygon fill="#F9A75D" points="1.693,91.5 4.19,96.925 6.643,95.764 3.033,90.705 	"/>
	<polygon fill="#F9A75D" points="121.7,26.025 123.037,26.82 126.648,21.762 124.195,20.6 	"/>
	<polygon fill="#F9A75D" points="139.733,38.396 138.396,37.602 134.784,42.659 137.238,43.821 	"/>
	<polygon fill="#F9A75D" points="111.692,60.606 112.607,54.704 111.103,54.307 109.016,60.16 	"/>
	<polygon fill="#F9A75D" points="67.012,54.816 65.101,52.887 61.524,57.968 62.718,58.969 	"/>
</g>
<g id="CB371AE">
	<polygon fill="#B371AE" points="178.61,93.418 184.267,95.991 185.029,94.634 180.151,91.185 	"/>
	<polygon fill="#B371AE" points="182.486,77.181 183.248,78.539 188.906,75.965 187.363,73.732 	"/>
	<polygon fill="#B371AE" points="184.932,15.308 180.053,11.859 178.512,14.092 184.168,16.666 	"/>
	<polygon fill="#B371AE" points="197.993,2.436 196.452,0.203 191.574,3.651 192.337,5.008 	"/>
	<polygon fill="#B371AE" points="92.443,51.31 98.075,53.298 98.743,51.892 93.375,48.76 	"/>
	<polygon fill="#B371AE" points="47.995,93.092 53.651,95.666 54.413,94.309 49.536,90.859 	"/>
	<polygon fill="#B371AE" points="65.935,72.777 61.058,76.226 61.82,77.583 67.478,75.011 	"/>
	<polygon fill="#B371AE" points="54.316,14.982 49.438,11.534 47.897,13.768 53.553,16.341 	"/>
	<polygon fill="#B371AE" points="60.959,3.326 61.722,4.683 67.379,2.11 65.921,0 65.662,0 	"/>
	<polygon fill="#B371AE" points="12.814,37.132 17.691,40.582 19.233,38.347 13.576,35.774 	"/>
	<polygon fill="#B371AE" points="130.218,33.692 135.85,35.68 136.518,34.274 131.149,31.142 	"/>
	<polygon fill="#B371AE" points="153.483,24.969 151.322,30.536 152.706,31.248 156.003,25.979 	"/>
	<polygon fill="#B371AE" points="143.896,80.816 145.803,82.747 149.382,77.665 148.188,76.664 	"/>
	<polygon fill="#B371AE" points="93.28,96.487 95.958,96.934 96.872,91.031 95.367,90.635 	"/>
</g>
<g id="CEF6EA8">
	<polygon fill="#EF6EA8" points="196.727,93.709 199.318,99.09 199.999,98.753 199.999,95.521 198.052,92.892 	"/>
	<polygon fill="#EF6EA8" points="159.371,79.807 161.063,81.93 165.16,77.257 164.083,76.135 	"/>
	<polygon fill="#EF6EA8" points="165.063,3.225 163.984,2.103 159.272,5.775 160.965,7.897 	"/>
	<polygon fill="#EF6EA8" points="130.83,51.207 128.397,52.412 132.097,57.406 133.423,56.588 	"/>
	<polygon fill="#EF6EA8" points="133.367,8.727 134.446,9.847 139.158,6.177 137.466,4.054 	"/>
	<polygon fill="#EF6EA8" points="66.111,93.384 68.703,98.765 71.135,97.56 67.436,92.566 	"/>
	<polygon fill="#EF6EA8" points="37.618,31.779 39.309,33.902 43.407,29.23 42.329,28.108 	"/>
	<polygon fill="#EF6EA8" points="28.755,79.482 30.448,81.604 34.545,76.932 33.467,75.81 	"/>
	<polygon fill="#EF6EA8" points="80.111,68.378 84.21,73.05 85.902,70.927 81.191,67.256 	"/>
	<polygon fill="#EF6EA8" points="34.448,2.9 33.369,1.777 28.657,5.449 30.35,7.572 	"/>
	<polygon fill="#EF6EA8" points="1.482,53.883 2.807,53.066 0.214,47.686 0,47.792 0,51.883 	"/>
	<polygon fill="#EF6EA8" points="2.752,8.401 3.832,9.522 8.542,5.852 6.85,3.729 	"/>
	<polygon fill="#EF6EA8" points="171.566,26.328 172.646,27.448 177.357,23.778 175.665,21.655 	"/>
	<polygon fill="#EF6EA8" points="67.934,13.78 65.257,13.334 64.342,19.237 65.848,19.634 	"/>
	<polygon fill="#EF6EA8" points="195.716,53.211 192.14,58.293 193.333,59.294 197.627,55.142 	"/>
</g>
</svg>
