<?xml version="1.0" encoding="utf-8"?>
<!-- Generator: Adobe Illustrator 15.0.0, SVG Export Plug-In . SVG Version: 6.00 Build 0)  -->
<!DOCTYPE svg PUBLIC "-//W3C//DTD SVG 1.0//EN" "http://www.w3.org/TR/2001/REC-SVG-20010904/DTD/svg10.dtd">
<svg version="1.0" id="Layer_1" xmlns="http://www.w3.org/2000/svg" xmlns:xlink="http://www.w3.org/1999/xlink" x="0px" y="0px"
	 width="200px" height="107.153px" viewBox="0 0 200 107.153" enable-background="new 0 0 200 107.153" xml:space="preserve">
<g id="C6DC5D2">
	<path fill-rule="evenodd" clip-rule="evenodd" fill="#6DC5D2" d="M142.071,0.536c0.471-0.038,0.896,0.096,1.244,0.397
		c0.825,0.716,1.598,1.501,1.98,2.539c0.307,0.831,0.525,1.708,0.671,2.584c0.211,1.258-0.005,2.422-1.098,3.267
		c-0.023,0.018-0.032,0.054-0.01,0.015c0,0.8,0.038,1.534-0.009,2.263c-0.088,1.363-0.7,2.435-1.915,3.117
		c-0.19,0.107-0.403,0.188-0.617,0.241c-0.34,0.084-0.531-0.085-0.564-0.451c-0.019-0.205,0.017-0.378,0.204-0.495
		c0.216-0.135,0.433-0.268,0.644-0.412c0.619-0.418,0.975-1.023,1.074-1.74c0.101-0.721,0.12-1.456-0.04-2.156
		c-0.353-0.165-0.683-0.289-0.982-0.463c-0.909-0.53-1.439-1.341-1.611-2.37c-0.115-0.683,0.258-1.091,0.953-1.141
		c0.477-0.034,0.897,0.111,1.209,0.46c0.294,0.331,0.537,0.707,0.786,1.076c0.153,0.228,0.276,0.476,0.438,0.76
		c0.362-0.325,0.447-0.691,0.426-1.076c-0.087-1.611-0.374-3.153-1.412-4.478c-0.467-0.598-0.934-1.132-1.732-1.166
		C141.57,0.747,141.663,0.569,142.071,0.536 M143.063,8.043c-0.218-0.793-0.229-0.811-0.962-1.333
		C142.32,7.389,142.546,7.785,143.063,8.043"/>
	<path fill-rule="evenodd" clip-rule="evenodd" fill="#6DC5D2" d="M200.02,97.863c-0.53-0.537-1.062-1.079-1.592-1.62
		c-0.2-0.204-0.395-0.416-0.597-0.617c-0.14-0.138-0.305-0.246-0.511-0.189c-0.216,0.06-0.291,0.255-0.3,0.443
		c-0.052,1.021-0.249,2.017-0.455,3.014c-0.054,0.265,0.003,0.569,0.078,0.837c0.07,0.263,0.404,0.373,0.628,0.225
		c0.372-0.245,0.729-0.51,1.079-0.785c0.399-0.313,0.766-0.669,1.281-0.802C199.806,98.323,199.801,98.295,200.02,97.863"/>
	<path fill-rule="evenodd" clip-rule="evenodd" fill="#6DC5D2" d="M177.629,22.111c0.642-0.4,1.284-0.802,1.929-1.201
		c0.242-0.151,0.493-0.293,0.732-0.448c0.164-0.105,0.307-0.243,0.295-0.458c-0.011-0.223-0.184-0.339-0.366-0.39
		c-0.985-0.272-1.914-0.682-2.842-1.1c-0.246-0.111-0.558-0.12-0.835-0.105c-0.271,0.012-0.452,0.312-0.356,0.564
		c0.159,0.415,0.342,0.822,0.533,1.223c0.217,0.458,0.484,0.893,0.502,1.425C177.227,21.802,177.254,21.804,177.629,22.111"/>
	<path fill-rule="evenodd" clip-rule="evenodd" fill="#6DC5D2" d="M49.438,87.071c-0.785,0.147-1.169,0.744-1.545,1.402
		c-0.835,1.463-0.898,3.03-0.751,4.636c0.035,0.384,0.17,0.734,0.576,1.004c0.12-0.306,0.207-0.568,0.325-0.814
		c0.194-0.401,0.38-0.809,0.623-1.179c0.257-0.391,0.653-0.595,1.129-0.63c0.695-0.053,1.123,0.299,1.108,0.992
		c-0.023,1.04-0.43,1.921-1.254,2.576c-0.271,0.216-0.579,0.386-0.904,0.601c-0.057,0.715,0.068,1.44,0.271,2.139
		c0.203,0.695,0.641,1.243,1.314,1.568c0.229,0.11,0.463,0.21,0.697,0.313c0.203,0.087,0.261,0.257,0.273,0.46
		c0.019,0.368-0.145,0.561-0.494,0.528c-0.219-0.021-0.441-0.071-0.646-0.149c-1.3-0.499-2.06-1.472-2.343-2.808
		c-0.153-0.715-0.22-1.447-0.336-2.238c0.028,0.035,0.013,0.001-0.012-0.013c-1.204-0.679-1.586-1.799-1.559-3.075
		c0.019-0.887,0.109-1.788,0.292-2.653c0.23-1.083,0.88-1.972,1.594-2.8c0.3-0.346,0.701-0.54,1.173-0.572
		C49.378,86.333,49.497,86.497,49.438,87.071 M49.831,92.475c-0.648,0.622-0.657,0.642-0.759,1.457
		C49.546,93.604,49.71,93.178,49.831,92.475"/>
	<path fill-rule="evenodd" clip-rule="evenodd" fill="#6DC5D2" d="M90.368,78.716c0.447-0.61,0.896-1.223,1.343-1.835
		c0.167-0.23,0.328-0.468,0.5-0.697c0.118-0.154,0.266-0.287,0.479-0.26c0.222,0.027,0.325,0.209,0.361,0.396
		c0.197,1.002,0.537,1.959,0.884,2.916c0.092,0.253,0.078,0.564,0.044,0.839c-0.033,0.271-0.346,0.428-0.59,0.313
		c-0.401-0.188-0.793-0.4-1.18-0.621c-0.44-0.253-0.854-0.552-1.383-0.609C90.646,79.139,90.646,79.109,90.368,78.716"/>
	<path fill-rule="evenodd" clip-rule="evenodd" fill="#6DC5D2" d="M82.157,4.107c1.311,0.34,2.183,1.316,3.042,2.311
		c0.456,0.529,0.68,1.143,0.652,1.846c-0.014,0.318,0.006,0.639-0.03,0.953c-0.008,0.079-0.167,0.166-0.273,0.195
		c-0.046,0.013-0.184-0.099-0.191-0.165c-0.175-1.66-1.424-2.563-2.513-3.579c-0.069-0.064-0.157-0.112-0.243-0.152
		c-0.085-0.041-0.179-0.062-0.328-0.111c-0.078,0.11-0.174,0.224-0.247,0.351c-0.439,0.781-1.197,1.139-1.986,1.395
		c-0.624,0.2-1.317-0.385-1.405-1.104c-0.074-0.59,0.146-1.07,0.636-1.402c0.235-0.159,0.498-0.285,0.763-0.387
		c0.234-0.091,0.487-0.129,0.748-0.194c-0.069-0.484-0.45-0.69-0.789-0.912c-0.323-0.213-0.689-0.34-1.087-0.291
		c-1.09,0.133-1.985,0.65-2.752,1.418c-0.192,0.193-0.276,0.421-0.253,0.692c0.013,0.177-0.062,0.313-0.237,0.367
		c-0.212,0.066-0.436-0.053-0.549-0.268c-0.145-0.273-0.164-0.556-0.028-0.828C75.2,4.016,75.319,3.777,75.493,3.6
		c0.746-0.759,1.581-1.37,2.648-1.63c1.512-0.37,2.898,0.17,3.693,1.501C81.947,3.661,82.035,3.867,82.157,4.107 M79.687,5.892
		c0.798-0.151,0.798-0.151,1.073-0.588C80.334,5.261,80.035,5.431,79.687,5.892"/>
	<path fill-rule="evenodd" clip-rule="evenodd" fill="#6DC5D2" d="M28.387,10.448c-0.641-0.399-1.284-0.801-1.929-1.202
		c-0.243-0.15-0.492-0.293-0.732-0.446c-0.165-0.106-0.307-0.243-0.295-0.458c0.011-0.223,0.185-0.34,0.367-0.391
		c0.985-0.272,1.914-0.681,2.842-1.099c0.246-0.111,0.557-0.12,0.834-0.108c0.271,0.014,0.453,0.314,0.357,0.566
		c-0.159,0.416-0.341,0.822-0.532,1.224c-0.217,0.458-0.486,0.894-0.503,1.425C28.789,10.139,28.761,10.141,28.387,10.448"/>
	<path fill-rule="evenodd" clip-rule="evenodd" fill="#6DC5D2" d="M28.24,97.508c0.49,0.575,0.98,1.156,1.472,1.732
		c0.186,0.216,0.379,0.428,0.562,0.648c0.125,0.15,0.218,0.323,0.142,0.524c-0.079,0.21-0.279,0.267-0.468,0.26
		c-1.021-0.04-2.03,0.067-3.042,0.182c-0.268,0.031-0.566-0.055-0.826-0.152c-0.255-0.095-0.335-0.436-0.168-0.646
		c0.276-0.348,0.575-0.679,0.879-1.003c0.347-0.37,0.734-0.703,0.914-1.204C27.764,97.679,27.791,97.686,28.24,97.508"/>
</g>
<g id="CFBC800">
	<g>
		<path fill-rule="evenodd" clip-rule="evenodd" fill="#FBC800" d="M156.176,11.513c-0.116-0.017-0.258-0.006-0.368-0.059
			c-0.241-0.12-0.478-0.256-0.697-0.412c-0.607-0.434-1.244-0.805-1.918-1.126c-0.812-0.388-0.842-0.849-0.145-1.441
			c0.078-0.066,0.152-0.148,0.242-0.183c0.874-0.327,1.539-0.972,2.283-1.492c0.216-0.152,0.445-0.286,0.645-0.412
			c0.265,0.101,0.217,0.292,0.212,0.444c-0.047,1.486-0.102,2.972-0.159,4.458C156.269,11.352,156.22,11.414,156.176,11.513"/>
		<path fill-rule="evenodd" clip-rule="evenodd" fill="#FBC800" d="M138.372,97.947c1.497,0.4,2.397,1.584,2.456,3.14
			c0.042,1.099-0.315,2.069-0.842,2.993c-0.122,0.216-0.318,0.396-0.504,0.566c-0.226,0.204-0.503,0.266-0.804,0.2
			c-0.238-0.051-0.414-0.232-0.41-0.456c0.004-0.182,0.114-0.292,0.287-0.326c0.269-0.055,0.465-0.196,0.597-0.436
			c0.529-0.947,0.78-1.95,0.609-3.036c-0.063-0.395-0.284-0.71-0.577-0.965c-0.307-0.265-0.609-0.572-1.094-0.507
			c0.008,0.269,0.041,0.522,0.019,0.771c-0.026,0.283-0.073,0.571-0.164,0.84c-0.186,0.562-0.586,0.906-1.174,0.997
			c-0.716,0.111-1.468-0.394-1.446-1.05c0.028-0.828,0.165-1.654,0.796-2.291c0.103-0.106,0.186-0.229,0.27-0.335
			c-0.088-0.13-0.135-0.215-0.198-0.284c-0.062-0.071-0.131-0.144-0.211-0.191c-1.277-0.769-2.488-1.722-4.132-1.435
			c-0.064,0.012-0.211-0.09-0.211-0.139c-0.001-0.109,0.039-0.286,0.113-0.314c0.294-0.122,0.605-0.191,0.908-0.289
			c0.669-0.22,1.321-0.177,1.955,0.118c1.191,0.553,2.369,1.125,3.056,2.292C137.937,97.861,138.158,97.891,138.372,97.947
			 M136.903,99.482c-0.344,0.386-0.344,0.386-0.271,1.192C136.98,100.214,137.062,99.882,136.903,99.482"/>
		<path fill-rule="evenodd" clip-rule="evenodd" fill="#FBC800" d="M65.949,99.98c0.51-1.252,1.593-1.989,2.693-2.708
			c0.585-0.383,1.224-0.521,1.917-0.401c0.313,0.056,0.634,0.08,0.941,0.156c0.076,0.02,0.143,0.188,0.157,0.296
			c0.006,0.048-0.123,0.17-0.188,0.169c-1.669-0.047-2.73,1.07-3.882,2.015c-0.073,0.059-0.13,0.14-0.183,0.22
			c-0.051,0.079-0.084,0.169-0.153,0.311c0.099,0.092,0.198,0.203,0.314,0.29c0.716,0.541,0.97,1.34,1.118,2.153
			c0.117,0.646-0.556,1.255-1.28,1.248c-0.595-0.006-1.041-0.288-1.306-0.817c-0.127-0.254-0.216-0.53-0.283-0.808
			c-0.058-0.243-0.062-0.5-0.092-0.767c-0.49,0.005-0.744,0.354-1.009,0.662c-0.253,0.293-0.428,0.638-0.433,1.037
			c-0.013,1.1,0.381,2.055,1.042,2.916c0.166,0.217,0.379,0.329,0.652,0.345c0.177,0.009,0.301,0.102,0.331,0.28
			c0.037,0.221-0.11,0.427-0.338,0.511c-0.29,0.105-0.572,0.088-0.824-0.082c-0.209-0.142-0.43-0.29-0.583-0.487
			c-0.653-0.841-1.147-1.747-1.265-2.842c-0.165-1.547,0.555-2.848,1.979-3.46C65.478,100.13,65.693,100.069,65.949,99.98
			 M67.389,102.665c-0.043-0.81-0.043-0.81-0.439-1.141C66.85,101.941,66.978,102.26,67.389,102.665"/>
		<path fill-rule="evenodd" clip-rule="evenodd" fill="#FBC800" d="M149.277,87.831c0.841,0.135,1.486,0.526,2.108,0.874
			c0.181,0.906,0.025,1.715-0.205,2.511c-0.137,0.471-0.342,0.588-0.848,0.559c-0.574-0.03-1.119-0.182-1.677-0.396
			c-0.104-0.839-0.063-1.658-0.021-2.479C148.658,88.456,148.96,88.159,149.277,87.831"/>
		<path fill-rule="evenodd" clip-rule="evenodd" fill="#FBC800" d="M64.735,89.353c0.125,0.853,0.234,1.607,0.354,2.421
			c-0.68,0.004-1.187-0.363-1.763-0.48c-0.217-0.733-0.263-1.461-0.335-2.21C63.64,88.941,64.154,89.221,64.735,89.353"/>
		<path fill-rule="evenodd" clip-rule="evenodd" fill="#FBC800" d="M45.262,3.206c0.626,0,1.195-0.002,1.766,0.002
			c0.119,0.001,0.238,0.033,0.341,0.047c0.028,0.098,0.078,0.174,0.057,0.213c-0.481,0.889-0.999,1.756-1.647,2.573
			c-0.391-0.09-0.704-0.29-0.982-0.549c-0.313-0.291-0.417-0.642-0.224-1.033C44.769,4.062,44.998,3.681,45.262,3.206"/>
	</g>
	<path fill-rule="evenodd" clip-rule="evenodd" fill="#FBC800" d="M9.962,99.269c-0.598-0.191-1.14-0.362-1.681-0.539
		c-0.113-0.038-0.217-0.104-0.311-0.149c0.003-0.101-0.021-0.189,0.01-0.22c0.729-0.702,1.486-1.367,2.353-1.949
		c0.344,0.205,0.582,0.49,0.768,0.823c0.209,0.372,0.203,0.737-0.101,1.051C10.692,98.603,10.358,98.896,9.962,99.269"/>
</g>
<g id="CF09AAE">
	<path fill-rule="evenodd" clip-rule="evenodd" fill="#F09AAE" d="M167.436,29.751c-0.656-0.029-1.13-0.524-1.179-1.164
		c-0.049-0.623,0.243-0.938,0.881-0.994c0.305-0.027,0.63,0.162,0.962-0.094c-0.041-0.362-0.069-0.743-0.135-1.118
		c-0.031-0.17-0.141-0.327-0.211-0.485c-0.185,0.034-0.312,0.051-0.435,0.084c-0.786,0.211-1.451-0.046-2.031-0.555
		c-0.742-0.651-1.016-1.529-1.075-2.478c-0.032-0.491,0.223-0.852,0.686-1.046c0.669-0.282,1.32-0.273,1.892,0.203
		c0.34,0.283,0.631,0.628,0.933,0.954c0.165,0.178,0.309,0.376,0.531,0.646c0.331-0.587,0.52-1.109,0.53-1.686
		c0.016-0.702,0.005-1.404,0.016-2.106c0.008-0.621-0.16-1.192-0.396-1.759c-0.494-1.185-1.289-1.959-2.635-2.039
		c-0.151-0.009-0.302-0.084-0.44-0.154c-0.135-0.069-0.133-0.332-0.003-0.404c0.108-0.062,0.228-0.128,0.345-0.135
		c1.415-0.084,2.577,0.394,3.353,1.617c0.538,0.844,0.905,1.757,0.912,2.782c0.005,0.671,0.017,1.34,0.021,2.011
		c0.008,0.952-0.271,1.822-0.754,2.634c-0.113,0.19-0.222,0.382-0.303,0.517c0.109,0.635,0.175,1.207,0.311,1.761
		c0.148,0.605,0.098,1.197-0.024,1.728c0.957,1.731,1.19,2.923,0.95,4.653c-0.209,1.51-1.453,2.2-3.094,1.667
		c-0.087-0.029-0.184-0.19-0.184-0.289c0.001-0.179,0.143-0.273,0.326-0.266c0.094,0.004,0.188,0.041,0.283,0.043
		c0.812,0.021,1.399-0.455,1.534-1.264c0.131-0.795,0.101-1.596-0.052-2.382c-0.072-0.369-0.201-0.736-0.454-1.002
		C168.119,29.676,167.775,29.766,167.436,29.751 M166.134,24.57c0.311,0.248,0.39,0.258,1.111,0.146
		c-0.026-0.144-0.011-0.317-0.087-0.422c-0.316-0.429-0.641-0.856-1.001-1.247c-0.214-0.231-0.3-0.202-0.784-0.027
		C165.44,23.626,165.632,24.17,166.134,24.57"/>
	<path fill-rule="evenodd" clip-rule="evenodd" fill="#F09AAE" d="M191.87,3.109c-0.629,0-1.197-0.003-1.767,0.001
		c-0.118,0.001-0.237,0.033-0.34,0.047c-0.03,0.099-0.08,0.174-0.058,0.213c0.48,0.889,0.999,1.755,1.647,2.573
		c0.39-0.089,0.703-0.29,0.982-0.549c0.312-0.291,0.418-0.642,0.224-1.033C192.362,3.965,192.133,3.583,191.87,3.109"/>
	<path fill-rule="evenodd" clip-rule="evenodd" fill="#F09AAE" d="M87.505,94.058c-0.224,0.788-0.713,1.266-1.385,1.565
		c-1.103,0.492-2.497-0.215-2.695-1.352c-0.082-0.469,0.06-0.843,0.479-1.046c0.397-0.192,0.823-0.342,1.251-0.448
		c0.335-0.084,0.692-0.074,1.11-0.113c-0.016-0.177,0.011-0.371-0.056-0.524c-0.573-1.341-1.502-2.366-2.803-3.025
		c-0.757-0.386-1.571-0.48-2.388-0.238c-0.227-0.531-0.188-0.752,0.159-0.887c0.174-0.068,0.371-0.118,0.556-0.114
		c1.074,0.02,2.089,0.264,2.979,0.899c1.369,0.979,2.366,2.224,2.771,3.89c0.014,0.062,0.052,0.116,0.103,0.226
		c0.23,0.076,0.5,0.16,0.765,0.255c0.756,0.272,1.477,0.596,2.05,1.192c0.437,0.454,0.731,0.96,0.801,1.593
		c0.036,0.316,0.09,0.632,0.141,0.984c0.239,0.186,0.491,0.375,0.736,0.573c0.974,0.787,1.645,1.775,1.957,2.992
		c0.206,0.804,0.42,1.606,0.59,2.418c0.164,0.785,0.198,1.587,0.017,2.378c-0.16,0.694-0.555,1.214-1.213,1.511
		c-0.113,0.051-0.246,0.102-0.366,0.092c-0.107-0.008-0.23-0.078-0.3-0.159c-0.037-0.045-0.005-0.227,0.045-0.253
		c0.307-0.164,0.439-0.452,0.576-0.74c0.297-0.626,0.347-1.291,0.313-1.965c-0.014-0.286-0.054-0.574-0.118-0.854
		c-0.179-0.777-0.343-1.56-0.575-2.322c-0.326-1.065-0.933-1.942-1.937-2.583c-0.133,0.162-0.26,0.295-0.365,0.442
		c-0.275,0.38-0.666,0.595-1.091,0.742c-0.442,0.155-0.927,0.002-1.189-0.385c-0.159-0.236-0.291-0.501-0.375-0.771
		c-0.251-0.804,0.103-1.385,0.942-1.542c0.341-0.063,0.696-0.05,1.069-0.072c0.142-0.503-0.021-0.921-0.369-1.295
		C89.186,94.577,88.576,94.269,87.505,94.058 M84.537,94.065c0.326,0.581,0.566,0.729,0.979,0.62
		c0.313-0.081,0.598-0.227,0.76-0.522c0.05-0.092,0.023-0.228,0.033-0.372C85.689,93.752,85.134,93.806,84.537,94.065 M89.947,97.55
		c-0.316-0.166-0.577-0.178-0.836-0.026c-0.045,0.024-0.063,0.096-0.115,0.187c0.081,0.131,0.172,0.278,0.27,0.437
		C89.604,98.067,89.801,97.903,89.947,97.55"/>
	<path fill-rule="evenodd" clip-rule="evenodd" fill="#F09AAE" d="M74.541,70.96c0.033-0.085,0.053-0.308,0.174-0.41
		c0.384-0.325,0.8-0.617,1.22-0.897c0.123-0.082,0.299-0.104,0.454-0.117c0.338-0.028,0.598,0.269,0.554,0.611
		c-0.009,0.063-0.012,0.132-0.042,0.183c-0.361,0.616-0.849,1.109-1.513,1.376C74.971,71.873,74.61,71.564,74.541,70.96"/>
	<path fill-rule="evenodd" clip-rule="evenodd" fill="#F09AAE" d="M115.05,9.709c-0.367,0.013-0.717,0.187-1.023,0.399
		c-0.66,0.458-1.242,1.007-1.704,1.667c-0.47,0.672-0.382,1.424,0.214,1.976c0.069,0.065,0.162,0.104,0.231,0.167
		c0.138,0.123,0.173,0.289,0.048,0.417c-0.067,0.072-0.251,0.118-0.332,0.078c-1.546-0.764-1.952-2.128-1.048-3.354
		c1.039-1.405,2.039-2.094,3.934-2.662c0.282-0.466,0.661-0.924,1.189-1.253c0.485-0.302,0.933-0.664,1.453-1.042
		c0.039-0.153,0.094-0.366,0.146-0.581c0.224-0.917,0.632-1.735,1.302-2.41c0.473-0.475,0.949-0.946,1.421-1.422
		c0.722-0.729,1.623-1.124,2.598-1.352c1.408-0.331,2.573,0.138,3.528,1.189c0.078,0.086,0.116,0.218,0.151,0.336
		c0.042,0.146-0.14,0.333-0.285,0.287c-0.146-0.046-0.31-0.097-0.421-0.196c-1.02-0.886-2.129-0.887-3.31-0.385
		c-0.564,0.24-1.086,0.532-1.513,0.98c-0.484,0.509-0.984,1.004-1.463,1.517c-0.395,0.42-0.626,0.924-0.8,1.577
		c0.348-0.039,0.589-0.08,0.832-0.092c0.443-0.021,0.893-0.064,1.334-0.029c0.741,0.06,1.214,0.508,1.495,1.178
		c0.193,0.463,0.122,0.898-0.243,1.228c-0.705,0.637-1.515,1.073-2.501,1.02c-0.771-0.041-1.428-0.323-1.841-1.024
		c-0.064-0.109-0.146-0.209-0.249-0.361c-0.164,0.063-0.351,0.098-0.492,0.198c-0.31,0.221-0.596,0.475-0.878,0.704
		c0.059,0.416,0.423,0.507,0.621,0.74c0.417,0.486,0.406,0.915-0.065,1.327c-0.481,0.422-1.166,0.446-1.655,0.008
		C115.472,10.311,115.288,10.008,115.05,9.709 M121.904,7.169c-0.223-0.463-0.265-0.544-0.579-0.529
		c-0.531,0.027-1.061,0.105-1.587,0.191c-0.129,0.021-0.238,0.156-0.357,0.24c0.436,0.583,0.501,0.632,0.896,0.673
		C120.916,7.81,121.434,7.554,121.904,7.169"/>
	<path fill-rule="evenodd" clip-rule="evenodd" fill="#F09AAE" d="M89.577,14.907c-0.18,0.308-0.403,0.258-0.591,0.114
		c-0.333-0.253-0.598-0.568-0.732-0.979c-0.363-1.113-0.207-2.159,0.48-3.088c0.298-0.404,0.701-0.736,1.092-1.057
		c0.317-0.261,0.69-0.455,1.041-0.679c-0.349-1.806,0.556-2.932,1.968-3.699c0.059-0.125,0.109-0.184,0.107-0.24
		c-0.021-1.015,0.448-1.826,1.015-2.625c0.93-1.312,2.184-2.12,3.714-2.534c0.6-0.162,1.204-0.188,1.775,0.097
		c0.147,0.073,0.25,0.237,0.354,0.341c-0.101,0.252-0.264,0.261-0.422,0.256c-1.83-0.039-3.255,0.75-4.378,2.147
		c-0.239,0.297-0.457,0.614-0.663,0.936c-0.17,0.267-0.333,0.546-0.279,0.949c0.277-0.033,0.548-0.085,0.82-0.095
		c0.351-0.012,0.701-0.011,1.049,0.022c0.293,0.03,0.537,0.174,0.718,0.426c0.582,0.811,0.367,1.561-0.594,1.871
		c-0.917,0.295-1.825,0.332-2.613-0.374c-0.046-0.042-0.107-0.066-0.164-0.096c-0.028-0.014-0.06-0.021-0.11-0.039
		c-0.662,0.266-1.052,0.786-1.278,1.447c-0.191,0.563-0.016,0.821,0.585,0.909c0.157,0.023,0.337,0.011,0.461,0.087
		c0.118,0.07,0.218,0.229,0.245,0.365C93.196,9.459,93.091,9.628,93,9.668c-0.198,0.089-0.42,0.14-0.638,0.171
		c-0.956,0.138-1.745,0.596-2.426,1.253c-0.942,0.911-1.143,2.028-0.602,3.232C89.424,14.524,89.503,14.729,89.577,14.907
		 M94.254,5.95c0.753,0.508,1.161,0.5,1.727-0.02C95.393,5.503,94.856,5.771,94.254,5.95"/>
	<path fill-rule="evenodd" clip-rule="evenodd" fill="#F09AAE" d="M59.176,14.48c-0.012,0.605-0.393,0.917-0.894,0.777
		c-0.56-0.157-1.033-0.479-1.412-0.917c-0.251-0.289-0.23-0.734,0.002-1.059c0.372-0.523,1.097-0.627,1.583-0.208
		C58.907,13.464,59.14,13.974,59.176,14.48"/>
	<path fill-rule="evenodd" clip-rule="evenodd" fill="#F09AAE" d="M0.141,84.293c0.196-0.573,0.653-0.753,1.088-0.466
		c0.486,0.317,0.838,0.769,1.066,1.301c0.151,0.352-0.005,0.77-0.325,1.009c-0.515,0.385-1.236,0.264-1.572-0.284
		C0.087,85.343,0.021,84.787,0.141,84.293"/>
</g>
<g id="C9CC715">
	<path fill-rule="evenodd" clip-rule="evenodd" fill="#9CC715" d="M120.417,90.886c-0.219-0.105-0.416-0.203-0.614-0.297
		c-0.717-0.339-1.434-0.677-2.152-1.013c-0.202-0.095-0.4-0.198-0.612-0.259c-0.298-0.088-0.646,0.042-0.715,0.314
		c-0.201,0.796-0.479,1.572-0.568,2.392c-0.007,0.056,0.04,0.119,0.068,0.201c0.404,0.124,0.806,0,1.201-0.091
		c0.99-0.224,1.978-0.468,2.967-0.702C120.229,91.376,120.393,91.263,120.417,90.886"/>
	<path fill-rule="evenodd" clip-rule="evenodd" fill="#9CC715" d="M187.07,35.394c-0.063,0.364-0.152,0.578-0.121,0.774
		c0.137,0.879,0.296,1.756,0.477,2.629c0.035,0.17,0.175,0.334,0.306,0.469c0.201,0.211,0.456,0.247,0.694,0.068
		c0.403-0.307,0.793-0.638,1.164-0.984c0.146-0.138,0.143-0.351,0.019-0.526c-0.074-0.103-0.167-0.193-0.256-0.284
		c-0.611-0.606-1.221-1.212-1.835-1.814C187.431,35.641,187.319,35.579,187.07,35.394"/>
	<path fill-rule="evenodd" clip-rule="evenodd" fill="#9CC715" d="M96.259,99.823c0.202-0.136,0.382-0.261,0.564-0.382
		c0.661-0.438,1.321-0.878,1.985-1.313c0.185-0.123,0.367-0.254,0.567-0.346c0.283-0.131,0.646-0.053,0.753,0.209
		c0.313,0.757,0.701,1.486,0.908,2.284c0.014,0.055-0.021,0.122-0.038,0.208c-0.383,0.183-0.798,0.116-1.204,0.083
		c-1.013-0.079-2.022-0.179-3.035-0.264C96.516,100.282,96.336,100.192,96.259,99.823"/>
	<path fill-rule="evenodd" clip-rule="evenodd" fill="#9CC715" d="M44.011,13.769c0.063,0.363,0.153,0.577,0.123,0.773
		c-0.137,0.879-0.297,1.756-0.477,2.627c-0.034,0.172-0.176,0.336-0.305,0.471c-0.203,0.211-0.458,0.247-0.694,0.068
		c-0.405-0.307-0.793-0.638-1.165-0.984c-0.147-0.138-0.143-0.351-0.018-0.527c0.073-0.104,0.166-0.193,0.255-0.284
		c0.61-0.605,1.221-1.211,1.835-1.813C43.652,14.015,43.762,13.952,44.011,13.769"/>
	<path fill-rule="evenodd" clip-rule="evenodd" fill="#9CC715" d="M20.051,17.823c0.122,0.21,0.234,0.397,0.342,0.589
		c0.391,0.689,0.782,1.38,1.169,2.073c0.108,0.193,0.227,0.384,0.305,0.59c0.109,0.292,0.005,0.647-0.262,0.736
		c-0.778,0.259-1.532,0.594-2.342,0.745c-0.055,0.011-0.121-0.029-0.205-0.053c-0.155-0.394-0.06-0.804,0-1.206
		c0.152-1.004,0.322-2.006,0.479-3.009C19.576,18.046,19.678,17.873,20.051,17.823"/>
	<path fill-rule="evenodd" clip-rule="evenodd" fill="#9CC715" d="M14.368,89.589c0.052-0.365,0.031-0.597,0.12-0.773
		c0.397-0.796,0.816-1.583,1.253-2.359c0.085-0.152,0.271-0.266,0.434-0.354c0.258-0.14,0.512-0.097,0.682,0.146
		c0.293,0.415,0.563,0.849,0.81,1.291c0.099,0.176,0.029,0.376-0.143,0.507c-0.101,0.077-0.217,0.135-0.33,0.193
		c-0.766,0.391-1.531,0.782-2.3,1.168C14.786,89.463,14.662,89.489,14.368,89.589"/>
	<path fill-rule="evenodd" clip-rule="evenodd" fill="#9CC715" d="M38.425,93.021c-0.052-0.239-0.101-0.452-0.145-0.667
		c-0.163-0.775-0.325-1.553-0.484-2.33c-0.044-0.218-0.099-0.435-0.109-0.655c-0.015-0.312,0.192-0.618,0.474-0.621
		c0.819-0.01,1.64-0.1,2.458,0.003c0.057,0.007,0.106,0.066,0.179,0.113c0.028,0.423-0.188,0.783-0.368,1.149
		c-0.449,0.911-0.916,1.813-1.372,2.72C38.946,92.951,38.797,93.086,38.425,93.021"/>
</g>
</svg>
