<svg xmlns="http://www.w3.org/2000/svg" x="0px" y="0px" width="100%" height="100%" viewBox="0 0 200 44.083" style="vertical-align: middle; max-width: 100%;"><g>
	<g>
		<path fill="#ffffff" d="M164.078,44.083h-0.042c-1.806-0.01-3.589-0.043-5.304-0.099l0.052-1.583    c1.701,0.056,3.469,0.089,5.256,0.098L164.078,44.083z M169.377,44.032l-0.04-1.584c1.865-0.048,3.626-0.131,5.234-0.248    l0.114,1.58C173.053,43.899,171.267,43.983,169.377,44.032z M153.436,43.727c-1.773-0.114-3.553-0.26-5.287-0.432l0.156-1.576    c1.717,0.171,3.478,0.313,5.232,0.428L153.436,43.727z M179.992,43.211l-0.233-1.566c1.891-0.281,3.546-0.627,5.063-1.057    l0.432,1.524C183.671,42.561,181.949,42.92,179.992,43.211z M22.654,43.064l-0.29-0.001l0.009-1.584l0.281,0.001    c1.459,0,3.073-0.061,4.936-0.187l0.106,1.579C25.799,43.001,24.149,43.064,22.654,43.064z M142.879,42.678    c-1.701-0.229-3.416-0.489-5.243-0.794l0.261-1.563c1.812,0.303,3.51,0.56,5.193,0.787L142.879,42.678z M16.987,42.674    c-1.966-0.304-3.688-0.782-5.265-1.461l0.627-1.455c1.452,0.626,3.049,1.067,4.88,1.351L16.987,42.674z M32.982,42.414    l-0.16-1.576c1.488-0.152,3.153-0.336,5.236-0.577l0.183,1.573C36.15,42.076,34.479,42.26,32.982,42.414z M43.487,41.211    l-0.188-1.573l0.25-0.029c1.605-0.192,3.267-0.391,4.994-0.594l0.185,1.574c-1.727,0.202-3.387,0.4-4.99,0.592L43.487,41.211z     M132.424,40.949c-1.283-0.243-2.547-0.489-3.806-0.734l-1.38-0.269l0.302-1.555l1.381,0.269c1.256,0.245,2.518,0.49,3.798,0.733    L132.424,40.949z M190.309,40.1l-0.76-1.39c1.539-0.842,2.831-1.841,3.949-3.056l1.165,1.074    C193.427,38.071,192.002,39.174,190.309,40.1z M53.969,39.991l-0.175-1.575c1.688-0.188,3.438-0.375,5.256-0.562l0.162,1.575    C57.398,39.616,55.653,39.803,53.969,39.991z M122.063,38.972c-1.856-0.333-3.553-0.613-5.184-0.857l0.233-1.566    c1.647,0.246,3.358,0.529,5.23,0.864L122.063,38.972z M64.459,38.913l-0.148-1.576l5.256-0.495l0.147,1.577L64.459,38.913z     M7.08,38.25c-0.315-0.281-0.63-0.582-0.935-0.894c-0.955-0.977-1.829-2.084-2.6-3.292l1.335-0.853    c0.712,1.117,1.519,2.139,2.396,3.037c0.28,0.286,0.568,0.562,0.857,0.819L7.08,38.25z M74.968,37.934l-0.143-1.578    c1.854-0.167,3.604-0.321,5.264-0.461l0.132,1.579C78.564,37.613,76.818,37.766,74.968,37.934z M111.675,37.433    c-1.713-0.192-3.472-0.355-5.226-0.485l0.117-1.58c1.773,0.132,3.552,0.297,5.285,0.491L111.675,37.433z M85.473,37.064    l-0.111-1.579c1.929-0.137,3.658-0.241,5.285-0.32l0.077,1.582C89.107,36.825,87.391,36.928,85.473,37.064z M101.208,36.651    c-1.315-0.05-2.609-0.064-3.958-0.074c-0.424,0-0.85,0.003-1.281,0.008L95.951,35c0.452-0.005,0.902-0.004,1.342-0.008    c1.353,0,2.653,0.024,3.975,0.075L101.208,36.651z M197.724,32.171l-1.425-0.692c0.727-1.494,1.277-3.11,1.637-4.804l1.55,0.329    C199.099,28.823,198.507,30.562,197.724,32.171z M1.186,29.146C0.59,27.417,0.19,25.627,0,23.829l1.575-0.167    c0.178,1.68,0.551,3.352,1.107,4.969L1.186,29.146z M198.416,21.61c-0.034-1.732-0.271-3.423-0.704-5.024l1.529-0.413    c0.467,1.727,0.722,3.545,0.759,5.407L198.416,21.61z M1.66,18.597l-1.566-0.233c0.256-1.721,0.73-3.332,1.409-4.788    c0.074-0.159,0.151-0.316,0.23-0.472l1.412,0.716c-0.071,0.141-0.14,0.282-0.207,0.426C2.324,15.563,1.895,17.026,1.66,18.597z     M195.733,11.96c-0.185-0.297-0.378-0.586-0.575-0.86c-0.801-1.112-1.695-2.038-2.737-2.83l0.959-1.261    c1.152,0.877,2.183,1.942,3.063,3.165c0.219,0.304,0.433,0.624,0.636,0.951L195.733,11.96z M6.133,9.842l-1.089-1.15    C6.295,7.507,7.798,6.444,9.51,5.531l0.745,1.397C8.668,7.775,7.28,8.755,6.133,9.842z M109.209,6.803l-0.005-1.584    c1.712-0.005,3.464-0.022,5.269-0.049l0.023,1.584C112.686,6.781,110.928,6.797,109.209,6.803z M103.918,6.781    c-1.818-0.022-3.599-0.06-5.292-0.113l0.05-1.583c1.683,0.053,3.453,0.091,5.262,0.113L103.918,6.781z M119.781,6.652    l-0.037-1.583c1.701-0.04,3.456-0.087,5.272-0.14l0.046,1.583C123.243,6.565,121.486,6.612,119.781,6.652z M93.334,6.441    c-1.767-0.096-3.545-0.215-5.287-0.354l0.126-1.579c1.729,0.138,3.494,0.256,5.247,0.351L93.334,6.441z M130.343,6.347    l-0.053-1.583c1.701-0.056,3.457-0.116,5.273-0.181l0.056,1.583C133.802,6.23,132.045,6.291,130.343,6.347z M187.979,6.008    c-1.457-0.473-3.096-0.812-5.008-1.037l0.185-1.573c2.018,0.237,3.755,0.598,5.313,1.103L187.979,6.008z M140.896,5.976    l-0.058-1.583l5.274-0.193l0.059,1.583L140.896,5.976z M82.771,5.599c-1.108-0.117-2.222-0.243-3.345-0.378    c-0.65-0.078-1.289-0.158-1.917-0.239l0.202-1.571c0.624,0.08,1.258,0.159,1.904,0.237c1.115,0.134,2.221,0.259,3.321,0.375    L82.771,5.599z M151.452,5.573l-0.067-1.583c1.834-0.079,3.592-0.16,5.271-0.239l0.074,1.583    C155.049,5.413,153.288,5.494,151.452,5.573z M162.004,5.081l-0.075-1.582c1.843-0.088,3.604-0.17,5.279-0.24l0.066,1.583    C165.601,4.911,163.844,4.993,162.004,5.081z M14.993,4.957l-0.486-1.507C16.081,2.94,17.83,2.49,19.705,2.11l0.313,1.553    C18.203,4.03,16.512,4.465,14.993,4.957z M172.536,4.665L172.5,3.082c2.023-0.045,3.686-0.055,5.313-0.021l-0.033,1.583    C176.176,4.612,174.535,4.62,172.536,4.665z M72.268,4.261c-1.252-0.181-2.473-0.363-3.68-0.542L67.044,3.49l0.231-1.567    l1.546,0.229c1.204,0.179,2.424,0.361,3.673,0.542L72.268,4.261z M25.176,2.829l-0.2-1.571c1.62-0.206,3.351-0.383,5.29-0.542    l0.129,1.579C28.479,2.451,26.771,2.626,25.176,2.829z M61.829,2.749c-1.895-0.251-3.601-0.451-5.215-0.61l0.154-1.576    c1.633,0.161,3.356,0.362,5.27,0.616L61.829,2.749z M35.647,1.934l-0.093-1.582c0.829-0.049,1.65-0.095,2.46-0.141    c0.964-0.054,1.905-0.098,2.832-0.131l0.057,1.583c-0.916,0.033-1.847,0.076-2.8,0.13C37.296,1.838,36.476,1.885,35.647,1.934z     M51.387,1.74c-1.746-0.093-3.459-0.145-5.238-0.156L46.158,0c1.805,0.012,3.542,0.063,5.313,0.158L51.387,1.74z"></path>
	</g>
	<g>
		<path fill="#ffffff" d="M4.613,15.026c-2.763,5.92-1.108,14.721,3.985,19.929c7.989,8.17,20.836,3.816,55.233,0.569    c19.063-1.799,28.596-2.698,38.15-2.277c25.072,1.104,33.398,7.261,62.067,7.402c19.005,0.094,25.484-2.562,29.039-7.402    c4.212-5.734,4.799-15.194,0.569-21.068c-5.678-7.888-17.404-5.652-47.261-4.556c-31.927,1.173-47.89,1.759-67.191-0.569    C63.892,5.208,55.153,2.683,38.208,3.638C24.571,4.407,9.07,5.472,4.613,15.026"></path>
	</g>
</g></svg>